<svg width="36" height="36" viewBox="0 0 36 36" fill="none" xmlns="http://www.w3.org/2000/svg">
<rect width="36" height="36" rx="6" fill="#C4DBFF"/>
<g clip-path="url(#clip0_282_4019)">
<path d="M26.6668 11.3333H21.3335V12.6666H26.6668V26.6666H21.3335V27.9999H28.0002V12.6666C28.0002 12.313 27.8597 11.9738 27.6096 11.7238C27.3596 11.4737 27.0205 11.3333 26.6668 11.3333Z" fill="#14274E"/>
<path d="M19.2532 8H10.0798C9.705 8 9.34551 8.1489 9.08046 8.41396C8.81541 8.67901 8.6665 9.03849 8.6665 9.41333V28H20.6665V9.41333C20.6665 9.03849 20.5176 8.67901 20.2525 8.41396C19.9875 8.1489 19.628 8 19.2532 8ZM19.3332 26.6667H17.3332V24.6667H11.9998V26.6667H9.99984V9.41333C9.99984 9.40283 10.0019 9.39242 10.0059 9.38272C10.0099 9.37301 10.0158 9.36419 10.0233 9.35676C10.0307 9.34934 10.0395 9.34344 10.0492 9.33942C10.0589 9.3354 10.0693 9.33333 10.0798 9.33333H19.2532C19.2637 9.33333 19.2741 9.3354 19.2838 9.33942C19.2935 9.34344 19.3023 9.34934 19.3097 9.35676C19.3172 9.36419 19.3231 9.37301 19.3271 9.38272C19.3311 9.39242 19.3332 9.40283 19.3332 9.41333V26.6667Z" fill="#14274E"/>
<path d="M11.3335 11.3333H12.6668V12.6666H11.3335V11.3333Z" fill="#14274E"/>
<path d="M14 11.3333H15.3333V12.6666H14V11.3333Z" fill="#14274E"/>
<path d="M16.6665 11.3333H17.9998V12.6666H16.6665V11.3333Z" fill="#14274E"/>
<path d="M11.3335 14.6667H12.6668V16.0001H11.3335V14.6667Z" fill="#14274E"/>
<path d="M14 14.6667H15.3333V16.0001H14V14.6667Z" fill="#14274E"/>
<path d="M16.6665 14.6667H17.9998V16.0001H16.6665V14.6667Z" fill="#14274E"/>
<path d="M11.3335 18H12.6668V19.3333H11.3335V18Z" fill="#14274E"/>
<path d="M14 18H15.3333V19.3333H14V18Z" fill="#14274E"/>
<path d="M16.6665 18H17.9998V19.3333H16.6665V18Z" fill="#14274E"/>
<path d="M11.3335 21.3333H12.6668V22.6666H11.3335V21.3333Z" fill="#14274E"/>
<path d="M14 21.3333H15.3333V22.6666H14V21.3333Z" fill="#14274E"/>
<path d="M16.6665 21.3333H17.9998V22.6666H16.6665V21.3333Z" fill="#14274E"/>
<path d="M21.3335 14.6667H22.6668V16.0001H21.3335V14.6667Z" fill="#14274E"/>
<path d="M24 14.6667H25.3333V16.0001H24V14.6667Z" fill="#14274E"/>
<path d="M21.3335 18H22.6668V19.3333H21.3335V18Z" fill="#14274E"/>
<path d="M24 18H25.3333V19.3333H24V18Z" fill="#14274E"/>
<path d="M21.3335 21.3333H22.6668V22.6666H21.3335V21.3333Z" fill="#14274E"/>
<path d="M24 21.3333H25.3333V22.6666H24V21.3333Z" fill="#14274E"/>
</g>
<path d="M9 8H27V28H9V8ZM21 24V26H25V10H11V26H15V24H21ZM13 12H15V14H13V12ZM19 12H17V14H19V12ZM21 12H23V14H21V12ZM15 16H13V18H15V16ZM17 16H19V18H17V16ZM23 16H21V18H23V16ZM13 20H15V22H13V20ZM19 20H17V22H19V20ZM23 20H21V22H23V20Z" fill="white"/>
<g clip-path="url(#clip1_282_4019)">
<path d="M24.5 13H20.5V14H24.5V24.5H20.5V25.5H25.5V14C25.5 13.7348 25.3946 13.4804 25.2071 13.2929C25.0196 13.1054 24.7652 13 24.5 13Z" fill="white"/>
<path d="M18.94 10.5H12.06C11.7789 10.5 11.5093 10.6117 11.3105 10.8105C11.1117 11.0093 11 11.2789 11 11.56V25.5H20V11.56C20 11.2789 19.8883 11.0093 19.6895 10.8105C19.4907 10.6117 19.2211 10.5 18.94 10.5ZM19 24.5H17.5V23H13.5V24.5H12V11.56C12 11.5521 12.0016 11.5443 12.0046 11.537C12.0076 11.5298 12.012 11.5231 12.0176 11.5176C12.0231 11.512 12.0298 11.5076 12.037 11.5046C12.0443 11.5016 12.0521 11.5 12.06 11.5H18.94C18.9479 11.5 18.9557 11.5016 18.963 11.5046C18.9702 11.5076 18.9769 11.512 18.9824 11.5176C18.988 11.5231 18.9924 11.5298 18.9954 11.537C18.9984 11.5443 19 11.5521 19 11.56V24.5Z" fill="white"/>
<path d="M13 13H14V14H13V13Z" fill="white"/>
<path d="M15 13H16V14H15V13Z" fill="white"/>
<path d="M17 13H18V14H17V13Z" fill="white"/>
<path d="M13 15.5H14V16.5H13V15.5Z" fill="white"/>
<path d="M15 15.5H16V16.5H15V15.5Z" fill="white"/>
<path d="M17 15.5H18V16.5H17V15.5Z" fill="white"/>
<path d="M13 18H14V19H13V18Z" fill="white"/>
<path d="M15 18H16V19H15V18Z" fill="white"/>
<path d="M17 18H18V19H17V18Z" fill="white"/>
<path d="M13 20.5H14V21.5H13V20.5Z" fill="white"/>
<path d="M15 20.5H16V21.5H15V20.5Z" fill="white"/>
<path d="M17 20.5H18V21.5H17V20.5Z" fill="white"/>
<path d="M20.5 15.5H21.5V16.5H20.5V15.5Z" fill="white"/>
<path d="M22.5 15.5H23.5V16.5H22.5V15.5Z" fill="white"/>
<path d="M20.5 18H21.5V19H20.5V18Z" fill="white"/>
<path d="M22.5 18H23.5V19H22.5V18Z" fill="white"/>
<path d="M20.5 20.5H21.5V21.5H20.5V20.5Z" fill="white"/>
<path d="M22.5 20.5H23.5V21.5H22.5V20.5Z" fill="white"/>
</g>
<defs>
<clipPath id="clip0_282_4019">
<rect width="24" height="24" fill="white" transform="translate(6 6)"/>
</clipPath>
<clipPath id="clip1_282_4019">
<rect width="18" height="18" fill="white" transform="translate(9 9)"/>
</clipPath>
</defs>
</svg>
