<svg width="378" height="378" viewBox="0 0 378 378" fill="none" xmlns="http://www.w3.org/2000/svg">
<path d="M378 289.094H0V289.283H378V289.094Z" fill="#E6E6E6"/>
<path d="M59.1343 297.531H39.0474V297.72H59.1343V297.531Z" fill="#E6E6E6"/>
<path d="M66.3995 293.751H49.0871V293.94H66.3995V293.751Z" fill="#E6E6E6"/>
<path d="M246.01 294.311H199.554V294.5H246.01V294.311Z" fill="#E6E6E6"/>
<path d="M261.508 294.311H250.365V294.5H261.508V294.311Z" fill="#E6E6E6"/>
<path d="M324.868 295.604H288.081V295.793H324.868V295.604Z" fill="#E6E6E6"/>
<path d="M146.037 298.62H80.5443V298.809H146.037V298.62Z" fill="#E6E6E6"/>
<path d="M336.866 295.604H331.506V295.793H336.866V295.604Z" fill="#E6E6E6"/>
<path d="M179.172 255.377H33.196C32.0524 255.375 30.9564 254.919 30.1485 254.11C29.3405 253.3 28.8868 252.204 28.8868 251.06V45.859C28.8967 44.722 29.3549 43.6348 30.1617 42.8336C30.9686 42.0324 32.0589 41.5819 33.196 41.58H179.172C180.317 41.58 181.415 42.0348 182.224 42.8444C183.034 43.6539 183.489 44.7519 183.489 45.8968V251.06C183.489 252.205 183.034 253.303 182.224 254.112C181.415 254.922 180.317 255.377 179.172 255.377ZM33.196 41.7312C32.1025 41.7332 31.0546 42.169 30.2821 42.9429C29.5096 43.7168 29.0758 44.7655 29.0758 45.859V251.06C29.0758 252.153 29.5096 253.202 30.2821 253.976C31.0546 254.75 32.1025 255.186 33.196 255.188H179.172C180.266 255.186 181.315 254.75 182.089 253.977C182.862 253.203 183.298 252.154 183.3 251.06V45.859C183.298 44.7648 182.862 43.7161 182.089 42.9424C181.315 42.1687 180.266 41.7332 179.172 41.7312H33.196Z" fill="#E6E6E6"/>
<path d="M342.702 255.377H196.719C195.574 255.375 194.478 254.919 193.669 254.11C192.859 253.301 192.404 252.204 192.402 251.06V45.859C192.414 44.7213 192.874 43.6341 193.682 42.8331C194.49 42.0322 195.581 41.5819 196.719 41.58H342.702C343.838 41.5839 344.927 42.0353 345.732 42.8363C346.537 43.6372 346.994 44.7233 347.004 45.859V251.06C347.004 252.202 346.551 253.298 345.745 254.107C344.939 254.916 343.845 255.373 342.702 255.377ZM196.719 41.7312C195.625 41.7332 194.576 42.1687 193.802 42.9424C193.029 43.7161 192.593 44.7648 192.591 45.859V251.06C192.593 252.154 193.029 253.203 193.802 253.977C194.576 254.75 195.625 255.186 196.719 255.188H342.702C343.796 255.186 344.845 254.75 345.619 253.977C346.393 253.203 346.828 252.154 346.83 251.06V45.859C346.828 44.7648 346.393 43.7161 345.619 42.9424C344.845 42.1687 343.796 41.7332 342.702 41.7312H196.719Z" fill="#E6E6E6"/>
<path d="M115.992 159.079C118.097 149.949 112.401 140.842 103.271 138.738C94.1415 136.633 85.0342 142.329 82.9298 151.458C80.8253 160.588 86.5206 169.696 95.6505 171.8C104.78 173.905 113.888 168.209 115.992 159.079Z" fill="#F0F0F0"/>
<path d="M215.142 151.759C213.033 147.223 214.712 143.935 219.883 143.935C223.118 143.935 227.14 145.22 231.056 147.299C231.502 146.112 232.742 145.401 234.746 145.401C238.276 145.401 243.137 147.601 246.947 150.693C248.123 149.907 249.509 149.493 250.924 149.507C254.303 149.37 258.386 150.633 261.939 152.689C262.147 152.492 262.393 152.338 262.662 152.236C262.931 152.135 263.217 152.089 263.504 152.1C264.63 152.137 265.736 152.411 266.75 152.901C267.764 153.392 268.665 154.09 269.393 154.95C269.476 155.048 269.544 155.154 269.62 155.252H212.519C210.712 153.642 212.708 151.843 215.142 151.759Z" fill="#F5F5F5"/>
<path d="M103.905 186.861L150.686 176.148V289.094H103.905V186.861Z" fill="#FAFAFA"/>
<path d="M174.961 176.148H150.686V289.094H174.961V176.148Z" fill="#EBEBEB"/>
<path d="M167.031 289.094H206.849L206.849 149.136H167.031V289.094Z" fill="#FAFAFA"/>
<path d="M227.511 149.136H206.849V289.094H227.511V149.136Z" fill="#EBEBEB"/>
<path d="M172.391 149.136H206.849V138.734H172.391V149.136Z" fill="#FAFAFA"/>
<path d="M172.391 149.136H206.849V146.8H172.391V149.136Z" fill="#EBEBEB"/>
<path d="M222.158 138.734H206.849V149.136H222.158V138.734Z" fill="#EBEBEB"/>
<path d="M177.743 138.734H206.842V128.331H177.743V138.734Z" fill="#FAFAFA"/>
<path d="M177.743 138.734H206.842V136.398H177.743V138.734Z" fill="#EBEBEB"/>
<path d="M216.798 128.339H206.849V138.741H216.798V128.339Z" fill="#EBEBEB"/>
<path d="M198.238 113.808H196.303V128.339H198.238V113.808Z" fill="#EBEBEB"/>
<path d="M220.911 289.094H249.987L249.987 167.325H220.911V289.094Z" fill="#FAFAFA"/>
<path d="M265.084 167.325H249.994V289.094H265.084V167.325Z" fill="#EBEBEB"/>
<path d="M257.539 192.024L279.584 210.924V289.094H257.539V192.024Z" fill="#FAFAFA"/>
<path d="M291.03 210.924H279.584V289.094H291.03V210.924Z" fill="#EBEBEB"/>
<path d="M291.03 210.924H279.584L257.539 192.024H268.977L291.03 210.924Z" fill="#EBEBEB"/>
<path d="M332.564 289.094C332.889 287.278 333.661 285.572 334.81 284.129C335.96 282.686 337.451 281.553 339.149 280.831C337.659 283.317 336.982 286.206 337.214 289.094H332.564Z" fill="#EBEBEB"/>
<path d="M140.843 289.094C140.519 287.278 139.747 285.572 138.597 284.129C137.447 282.686 135.956 281.553 134.258 280.831C135.749 283.317 136.425 286.206 136.193 289.094H140.843Z" fill="#EBEBEB"/>
<path d="M44.5057 289.094C44.5057 289.094 44.1353 279.418 40.0907 276.605C41.7463 280.559 41.391 289.094 41.391 289.094H44.5057Z" fill="#EBEBEB"/>
<path d="M42.9861 289.094C42.9861 289.094 43.3641 283.538 47.4087 281.928C45.7455 284.196 46.1084 289.094 46.1084 289.094H42.9861Z" fill="#EBEBEB"/>
<path d="M144.305 289.094C144.305 289.094 143.897 279.932 136.564 276.605C139.845 281.308 139.656 289.094 139.656 289.094H144.305Z" fill="#EBEBEB"/>
<path d="M70.8221 227.412L76.1594 265.061L76.6886 268.826H80.1133L79.5766 265.061L74.2392 227.412H70.8221Z" fill="#E0E0E0"/>
<path d="M217.479 227.412L222.816 265.061L223.345 268.826H226.77L226.233 265.061L220.896 227.412H217.479Z" fill="#E0E0E0"/>
<path d="M92.7385 265.061L93.2753 268.826L96.1556 289.125H99.5803L96.7 268.826L96.1708 265.061H92.7385Z" fill="#E6E6E6"/>
<path d="M239.403 265.061L239.939 268.826L242.812 289.125H246.229L243.356 268.826L242.827 265.061H239.403Z" fill="#E6E6E6"/>
<path d="M222.12 265.061L221.584 268.826L218.703 289.125H215.279L218.159 268.826L218.688 265.061H222.12Z" fill="#E6E6E6"/>
<path d="M75.4564 265.061L74.9196 268.826L72.0468 289.125H68.6297L71.5025 268.826L72.0393 265.061H75.4564Z" fill="#E6E6E6"/>
<path d="M65.9005 232.651H222.642L219.731 222.166H62.9899L65.9005 232.651Z" fill="#F5F5F5"/>
<path d="M69.4764 232.651H226.225L223.315 222.166H66.5658L69.4764 232.651Z" fill="#E6E6E6"/>
<path d="M68.0853 245.723H224.827L221.916 235.245H65.1672L68.0853 245.723Z" fill="#F5F5F5"/>
<path d="M71.6612 245.723H228.403L225.492 235.245H68.7506L71.6612 245.723Z" fill="#E6E6E6"/>
<path d="M70.2627 258.817H227.012L224.101 248.338H67.3521L70.2627 258.817Z" fill="#F5F5F5"/>
<path d="M73.8461 258.817H230.588L227.677 248.338H70.9355L73.8461 258.817Z" fill="#E6E6E6"/>
<path d="M244.853 265.061H88.7997V268.826H244.853V265.061Z" fill="#E6E6E6"/>
<path d="M88.7998 265.061H67.3521V268.826H88.7998V265.061Z" fill="#F5F5F5"/>
<path d="M55.566 111.487C52.6403 105.167 54.9688 100.669 62.1205 100.669C66.6036 100.669 72.1602 102.438 77.5807 105.318C78.1931 103.678 79.9168 102.695 82.6837 102.695C87.5675 102.695 94.2883 105.719 99.5652 110.036C101.189 108.946 103.106 108.374 105.061 108.395C109.733 108.199 115.388 109.953 120.302 112.795C120.886 112.248 121.664 111.954 122.464 111.979C125.156 111.865 128.8 113.634 130.607 115.917C130.72 116.061 130.818 116.197 130.917 116.341H51.9372C49.4424 114.096 52.2018 111.601 55.566 111.487Z" fill="#F5F5F5"/>
<path d="M263.02 124.521C263.219 124.509 263.418 124.509 263.617 124.521C263.436 122.457 264.502 121.134 266.792 121.134C268.828 121.272 270.799 121.908 272.53 122.986C271.941 118.979 273.838 116.371 278.117 116.371C281.572 116.371 285.949 118.065 290.274 120.831C290.652 119.259 291.922 118.314 294.054 118.314C297.834 118.314 303.126 121.232 307.435 125.345C308.567 124.315 310.048 123.753 311.578 123.772C315.154 123.583 319.599 125.284 323.538 127.991C323.727 127.743 323.974 127.544 324.257 127.412C324.54 127.281 324.851 127.22 325.163 127.235C327.121 127.137 329.813 128.641 331.385 130.652H259.875C258.189 127.537 259.527 124.869 263.02 124.521Z" fill="#F5F5F5"/>
<path d="M142.718 78.7979C142.914 78.7864 143.111 78.7864 143.307 78.7979C143.126 76.7264 144.199 75.411 146.483 75.411C148.521 75.5474 150.494 76.1836 152.228 77.2632C151.638 73.2488 153.528 70.6406 157.807 70.6406C161.27 70.6406 165.64 72.3416 169.964 75.1086C170.342 73.5361 171.612 72.5911 173.744 72.5911C177.524 72.5911 182.816 75.5017 187.125 79.6219C188.26 78.5956 189.738 78.0318 191.268 78.0419C194.844 77.8604 199.289 79.5539 203.228 82.2604C203.418 82.0126 203.665 81.8145 203.948 81.6828C204.231 81.5512 204.541 81.49 204.853 81.5044C206.811 81.3985 209.51 82.903 211.075 84.9215H139.565C137.887 81.8143 139.225 79.1456 142.718 78.7979Z" fill="#F5F5F5"/>
<path d="M321.126 276.016L307.692 262.581H297.229L308.841 274.194H305.651V289.094H317.936V276.016H321.126Z" fill="#EBEBEB"/>
<path d="M310.663 276.016L297.229 262.581L283.795 276.016H288.807V289.094H305.651V276.016H310.663Z" fill="#FAFAFA"/>
<path d="M189 323.235C269.954 323.235 335.581 319.404 335.581 314.677C335.581 309.951 269.954 306.12 189 306.12C108.046 306.12 42.4192 309.951 42.4192 314.677C42.4192 319.404 108.046 323.235 189 323.235Z" fill="#F5F5F5"/>
<path d="M303.277 81.4363L283.13 61.2889H267.435L284.853 78.7072H280.06V101.047H298.484V81.4363H303.277Z" fill="#407BFF"/>
<path opacity="0.4" d="M303.277 81.4363L283.13 61.2889H267.435L284.853 78.7072H280.06V101.047H298.484V81.4363H303.277Z" fill="white"/>
<path d="M287.582 81.4363L267.435 61.2889L247.288 81.4363H254.81V101.047H280.06V81.4363H287.582Z" fill="#407BFF"/>
<path opacity="0.7" d="M287.582 81.4363L267.435 61.2889L247.288 81.4363H254.81V101.047H280.06V81.4363H287.582Z" fill="white"/>
<path d="M316.25 161.86L296.103 141.705H280.408L297.826 159.123H293.033V181.463H311.457V161.86H316.25Z" fill="#407BFF"/>
<path opacity="0.4" d="M316.25 161.86L296.103 141.705H280.408L297.826 159.123H293.033V181.463H311.457V161.86H316.25Z" fill="white"/>
<path d="M300.555 161.86L280.408 141.705L260.261 161.86H267.775V181.463H293.033V161.86H300.555Z" fill="#407BFF"/>
<path opacity="0.7" d="M300.555 161.86L280.408 141.705L260.261 161.86H267.775V181.463H293.033V161.86H300.555Z" fill="white"/>
<path d="M225.575 182.808L205.42 162.661H189.733L207.152 180.072H202.359V202.419H220.782V182.808H225.575Z" fill="#407BFF"/>
<path opacity="0.4" d="M225.575 182.808L205.42 162.661H189.733L207.152 180.072H202.359V202.419H220.782V182.808H225.575Z" fill="white"/>
<path d="M209.881 182.808L189.733 162.661L169.586 182.808H177.101V202.411H202.359V182.808H209.881Z" fill="#407BFF"/>
<path opacity="0.7" d="M209.881 182.808L189.733 162.661L169.586 182.808H177.101V202.411H202.359V182.808H209.881Z" fill="white"/>
<path d="M224.373 115.109H213.532L211.982 113.566L199.395 90.1303L224.373 115.109Z" fill="#2F54C6"/>
<path d="M213.494 137.872H236.333V110.172H213.494V137.872Z" fill="#407BFF"/>
<path opacity="0.3" d="M213.494 137.872H236.333V110.172H213.494V137.872Z" fill="black"/>
<path d="M222.823 113.566H242.283L217.297 88.5805H197.845L222.823 113.566Z" fill="#407BFF"/>
<path opacity="0.3" d="M222.823 113.566H242.283L217.297 88.5805H197.845L222.823 113.566Z" fill="black"/>
<path d="M213.494 106.558V137.872H182.188V106.558L197.845 91.355L198.004 91.5138L199.395 92.8595L213.494 106.558Z" fill="#407BFF"/>
<path opacity="0.3" d="M199.395 90.1303V100.971L185.25 115.109H182.188V107.337L198.004 91.5138L199.395 90.1303Z" fill="black"/>
<path d="M222.823 113.566H211.982L197.845 99.4216V88.5805L222.823 113.566Z" fill="#407BFF"/>
<path d="M172.859 113.566H183.7L197.845 99.4216V88.5805L172.859 113.566Z" fill="#407BFF"/>
<path d="M169.344 145.439C162.895 150.671 156.243 155.592 149.552 160.431C142.861 165.269 136.08 169.971 129.276 174.636C122.472 179.301 115.555 183.791 108.607 188.244C105.152 190.512 101.644 192.659 98.159 194.867C96.44 196.051 94.5406 196.95 92.5344 197.528C91.4468 197.821 90.3323 198.003 89.208 198.072C87.9446 198.176 86.6728 198.108 85.428 197.868C84.4534 197.67 83.5275 197.281 82.7034 196.724C81.8793 196.168 81.1731 195.454 80.6253 194.624C80.0775 193.793 79.6989 192.863 79.5112 191.887C79.3234 190.91 79.3302 189.906 79.5312 188.932C79.5312 188.819 79.5841 188.675 79.6144 188.554C79.9536 187.33 80.4625 186.159 81.1264 185.076C81.6849 184.112 82.341 183.208 83.0844 182.377C84.4848 180.829 86.1263 179.516 87.9455 178.492C91.4609 176.329 94.946 174.129 98.4766 172.013C105.515 167.711 112.621 163.53 119.766 159.403C126.91 155.275 134.13 151.276 141.41 147.375C148.69 143.474 156.031 139.671 163.561 136.163C164.775 135.636 166.139 135.563 167.403 135.957C168.667 136.351 169.748 137.186 170.449 138.31C171.149 139.433 171.423 140.771 171.22 142.08C171.018 143.388 170.352 144.58 169.344 145.439Z" fill="#407BFF"/>
<path d="M169.344 145.439C162.895 150.671 156.243 155.592 149.552 160.431C142.861 165.269 136.08 169.971 129.276 174.636C122.472 179.301 115.555 183.791 108.607 188.244C105.152 190.512 101.644 192.659 98.159 194.867C96.44 196.051 94.5406 196.95 92.5344 197.528C91.4468 197.821 90.3323 198.003 89.208 198.072C87.9446 198.176 86.6728 198.108 85.428 197.868C84.4534 197.67 83.5275 197.281 82.7034 196.724C81.8793 196.168 81.1731 195.454 80.6253 194.624C80.0775 193.793 79.6989 192.863 79.5112 191.887C79.3234 190.91 79.3302 189.906 79.5312 188.932C79.5312 188.819 79.5841 188.675 79.6144 188.554C79.9536 187.33 80.4625 186.159 81.1264 185.076C81.6849 184.112 82.341 183.208 83.0844 182.377C84.4848 180.829 86.1263 179.516 87.9455 178.492C91.4609 176.329 94.946 174.129 98.4766 172.013C105.515 167.711 112.621 163.53 119.766 159.403C126.91 155.275 134.13 151.276 141.41 147.375C148.69 143.474 156.031 139.671 163.561 136.163C164.775 135.636 166.139 135.563 167.403 135.957C168.667 136.351 169.748 137.186 170.449 138.31C171.149 139.433 171.423 140.771 171.22 142.08C171.018 143.388 170.352 144.58 169.344 145.439Z" fill="#407BFF"/>
<path opacity="0.5" d="M169.344 145.439C162.895 150.671 156.243 155.592 149.552 160.431C142.861 165.269 136.08 169.971 129.276 174.636C122.472 179.301 115.555 183.791 108.607 188.244C105.152 190.512 101.644 192.659 98.159 194.867C96.44 196.051 94.5406 196.95 92.5344 197.528C91.4468 197.821 90.3323 198.003 89.208 198.072C87.9446 198.176 86.6728 198.108 85.428 197.868C84.4534 197.67 83.5275 197.281 82.7034 196.724C81.8793 196.168 81.1731 195.454 80.6253 194.624C80.0775 193.793 79.6989 192.863 79.5112 191.887C79.3234 190.91 79.3302 189.906 79.5312 188.932C79.5312 188.819 79.5841 188.675 79.6144 188.554C79.9536 187.33 80.4625 186.159 81.1264 185.076C81.6849 184.112 82.341 183.208 83.0844 182.377C84.4848 180.829 86.1263 179.516 87.9455 178.492C91.4609 176.329 94.946 174.129 98.4766 172.013C105.515 167.711 112.621 163.53 119.766 159.403C126.91 155.275 134.13 151.276 141.41 147.375C148.69 143.474 156.031 139.671 163.561 136.163C164.775 135.636 166.139 135.563 167.403 135.957C168.667 136.351 169.748 137.186 170.449 138.31C171.149 139.433 171.423 140.771 171.22 142.08C171.018 143.388 170.352 144.58 169.344 145.439Z" fill="white"/>
<path d="M141.448 308.168L147.617 306.739L144.729 292.353L138.56 293.782L141.448 308.168Z" fill="#EBB376"/>
<path d="M99.8525 136.254C98.9982 139.278 98.1742 142.461 97.3879 145.575C96.6017 148.69 95.8759 151.85 95.2711 154.995C94.9385 156.56 94.6512 158.163 94.4017 159.637C94.1522 161.111 94.0086 162.661 93.9179 164.211C93.8385 165.752 93.8385 167.296 93.9179 168.837C93.9179 169.593 94.0162 170.349 94.0918 171.151C94.1674 171.952 94.3034 172.716 94.4093 173.373L91.3853 174.515C90.9885 173.703 90.6475 172.864 90.3647 172.005C90.0689 171.18 89.8166 170.339 89.6087 169.488C89.195 167.788 88.9119 166.059 88.762 164.317C88.622 162.556 88.5967 160.788 88.6864 159.025C88.8073 157.24 89.019 155.6 89.2534 153.937C89.7296 150.618 90.342 147.329 91.0678 144.109C91.7935 140.888 92.5798 137.645 93.6004 134.387L99.8525 136.254Z" fill="#EBB376"/>
<path d="M90.9543 137.297L97.3123 142.362L101.13 145.386C101.13 145.386 101.531 144.32 102.015 142.793C102.937 139.845 104.139 135.173 103.307 133.026C102 129.624 99.5274 126.554 96.3975 127.235C93.744 127.832 90.9543 137.297 90.9543 137.297Z" fill="#263238"/>
<path d="M99.7391 308.214H106.067L105.575 293.547H99.2401L99.7391 308.214Z" fill="#EBB376"/>
<path d="M144.729 292.36L146.278 300.064L140.049 301.198L138.552 293.789L144.729 292.36Z" fill="#DA9D62"/>
<path d="M99.2401 293.547H105.575L105.825 301.107H99.4896L99.2401 293.547Z" fill="#DA9D62"/>
<path d="M119.879 165.655C119.879 165.655 116.205 209.117 112.395 233.612C109.318 253.396 106.883 299.648 106.883 299.648H98.28C98.28 299.648 94.1674 254.984 95.7323 235.388C99.6862 185.878 92.7083 177.108 100.987 165.632L119.879 165.655Z" fill="#407BFF"/>
<path opacity="0.6" d="M119.879 165.655C119.879 165.655 116.205 209.117 112.395 233.612C109.318 253.396 106.883 299.648 106.883 299.648H98.28C98.28 299.648 94.1674 254.984 95.7323 235.388C99.6862 185.878 92.7083 177.108 100.987 165.632L119.879 165.655Z" fill="black"/>
<path d="M91.8011 174.024L88.0665 176.564L88.5957 178.734C88.5957 178.734 96.3749 174.696 94.2959 173.079L91.8011 174.024Z" fill="#EBB376"/>
<path d="M108.735 308.584C108.172 308.57 107.612 308.494 107.065 308.357C107.037 308.349 107.012 308.333 106.992 308.312C106.972 308.291 106.958 308.265 106.951 308.236C106.947 308.207 106.951 308.177 106.963 308.151C106.975 308.124 106.995 308.101 107.019 308.085C107.239 307.941 109.151 306.702 109.892 307.034C109.976 307.071 110.049 307.13 110.102 307.204C110.155 307.279 110.187 307.366 110.195 307.458C110.224 307.6 110.217 307.748 110.173 307.887C110.129 308.026 110.051 308.151 109.945 308.251C109.595 308.504 109.166 308.622 108.735 308.584ZM107.488 308.138C108.592 308.365 109.423 308.32 109.756 308.032C109.826 307.963 109.876 307.878 109.904 307.784C109.932 307.69 109.936 307.591 109.915 307.495C109.912 307.455 109.899 307.417 109.876 307.384C109.854 307.35 109.823 307.324 109.786 307.306C109.386 307.133 108.274 307.692 107.488 308.138Z" fill="#407BFF"/>
<path d="M107.103 308.357C107.078 308.365 107.052 308.365 107.027 308.357C107.005 308.344 106.986 308.325 106.973 308.302C106.96 308.28 106.952 308.255 106.951 308.229C106.951 308.146 106.951 306.324 107.647 305.711C107.731 305.632 107.832 305.574 107.942 305.539C108.052 305.505 108.168 305.497 108.282 305.515C108.401 305.516 108.516 305.557 108.609 305.633C108.701 305.709 108.764 305.814 108.788 305.931C108.932 306.687 107.775 308.017 107.178 308.357C107.153 308.364 107.127 308.364 107.103 308.357ZM108.176 305.794C108.054 305.797 107.936 305.843 107.843 305.923C107.447 306.512 107.243 307.209 107.261 307.919C107.859 307.435 108.584 306.407 108.494 305.976C108.494 305.908 108.441 305.817 108.244 305.794H108.176Z" fill="#407BFF"/>
<path d="M148.176 305.787C148.148 305.785 148.121 305.776 148.097 305.76C148.073 305.745 148.055 305.723 148.042 305.698C148.03 305.672 148.025 305.644 148.027 305.616C148.029 305.588 148.039 305.561 148.055 305.537C148.259 305.295 150.021 303.224 150.92 303.224H150.981C151.063 303.23 151.142 303.257 151.21 303.304C151.277 303.35 151.331 303.414 151.366 303.489C151.427 303.605 151.459 303.735 151.459 303.867C151.459 303.998 151.427 304.128 151.366 304.245C150.973 305.076 149.197 305.545 148.168 305.757L148.176 305.787ZM150.913 303.519C150.421 303.519 149.333 304.547 148.584 305.386C149.968 305.061 150.905 304.63 151.124 304.139C151.169 304.062 151.192 303.974 151.192 303.886C151.192 303.797 151.169 303.709 151.124 303.632C151.111 303.602 151.091 303.575 151.064 303.555C151.037 303.535 151.006 303.523 150.973 303.519H150.913Z" fill="#407BFF"/>
<path d="M148.176 305.787C148.151 305.783 148.127 305.772 148.108 305.754C148.089 305.736 148.076 305.714 148.07 305.689C148.07 305.621 147.526 303.988 148.01 303.073C148.076 302.939 148.17 302.82 148.284 302.724C148.399 302.628 148.532 302.556 148.675 302.513C149.076 302.392 149.272 302.513 149.355 302.687C149.741 303.307 148.887 305.137 148.32 305.711C148.305 305.736 148.283 305.756 148.258 305.769C148.233 305.782 148.205 305.788 148.176 305.787ZM148.932 302.763C148.874 302.754 148.816 302.754 148.758 302.763C148.652 302.793 148.554 302.845 148.47 302.915C148.385 302.986 148.316 303.073 148.267 303.171C148.047 303.86 148.047 304.599 148.267 305.288C148.803 304.532 149.325 303.179 149.098 302.808C149.073 302.778 149.039 302.757 149 302.749C148.962 302.74 148.922 302.745 148.887 302.763H148.932Z" fill="#407BFF"/>
<path d="M107.654 111.941C108.41 115.721 109.922 123.281 107.314 125.814C107.314 125.814 108.342 129.594 115.328 129.594C123.001 129.594 118.994 125.814 118.994 125.814C114.806 124.816 114.912 121.708 115.645 118.783L107.654 111.941Z" fill="#EBB376"/>
<path d="M122.91 103.882C122.848 103.883 122.788 103.865 122.737 103.829C122.704 103.806 122.677 103.776 122.656 103.742C122.635 103.709 122.621 103.671 122.615 103.632C122.608 103.592 122.61 103.552 122.619 103.513C122.628 103.474 122.645 103.438 122.669 103.406C122.941 103.017 123.302 102.698 123.721 102.475C124.14 102.252 124.606 102.13 125.08 102.12C125.151 102.132 125.216 102.168 125.263 102.223C125.309 102.278 125.335 102.347 125.335 102.419C125.335 102.491 125.309 102.561 125.263 102.615C125.216 102.67 125.151 102.706 125.08 102.718C124.703 102.728 124.333 102.828 124.002 103.01C123.67 103.191 123.387 103.448 123.175 103.761C123.145 103.802 123.105 103.835 123.059 103.856C123.012 103.878 122.961 103.886 122.91 103.882Z" fill="#263238"/>
<path d="M124.589 107.488C124.996 108.672 125.566 109.794 126.282 110.822C126.013 110.996 125.71 111.11 125.393 111.156C125.076 111.202 124.752 111.178 124.445 111.087L124.589 107.488Z" fill="#DE5753"/>
<path d="M124.165 106.596C124.165 107.11 124.4 107.533 124.732 107.541C125.065 107.549 125.352 107.155 125.375 106.641C125.398 106.127 125.141 105.711 124.808 105.696C124.475 105.681 124.188 106.089 124.165 106.596Z" fill="#263238"/>
<path d="M124.657 105.719L125.897 105.417C125.897 105.417 125.231 106.347 124.657 105.719Z" fill="#263238"/>
<path d="M106.596 307.48H99.4821C99.359 307.476 99.2386 307.517 99.1448 307.597C99.051 307.677 98.9906 307.789 98.9755 307.911L98.1666 313.536C98.1493 313.678 98.1628 313.823 98.206 313.96C98.2492 314.097 98.3212 314.223 98.4172 314.329C98.5131 314.436 98.6308 314.521 98.7623 314.578C98.8939 314.636 99.0362 314.664 99.1797 314.662C101.659 314.625 102.854 314.473 105.984 314.473C107.911 314.473 110.716 314.677 113.377 314.677C116.038 314.677 116.175 312.047 115.071 311.812C110.111 310.739 109.325 309.272 107.654 307.866C107.357 307.619 106.983 307.482 106.596 307.48Z" fill="#263238"/>
<path d="M147.496 305.114L140.926 307.843C140.812 307.887 140.719 307.972 140.663 308.081C140.607 308.189 140.593 308.315 140.624 308.433L142.03 313.944C142.07 314.082 142.138 314.209 142.231 314.318C142.324 314.427 142.439 314.515 142.568 314.577C142.697 314.638 142.838 314.671 142.981 314.674C143.124 314.678 143.266 314.65 143.398 314.594C145.666 313.604 146.725 313.014 149.612 311.812C151.389 311.056 155.146 309.733 157.603 308.713C160.06 307.692 159.176 305.212 158.065 305.416C153.075 306.339 150.701 305.726 148.622 305.069C148.253 304.951 147.854 304.967 147.496 305.114Z" fill="#263238"/>
<path d="M133.192 133.653C134.424 136.556 135.755 139.527 137.101 142.415C137.781 143.867 138.489 145.293 139.225 146.694C139.981 148.1 140.737 149.476 141.493 150.792C141.894 151.442 142.294 152.092 142.71 152.689L143.33 153.551C143.457 153.731 143.602 153.898 143.761 154.05C144.585 154.766 145.614 155.205 146.702 155.305C149.28 155.676 152.515 155.154 155.411 154.375L156.757 157.286C155.992 157.745 155.199 158.157 154.383 158.518C153.58 158.892 152.754 159.215 151.911 159.486C150.133 160.091 148.27 160.41 146.392 160.431C145.345 160.44 144.301 160.303 143.292 160.023C142.172 159.714 141.119 159.202 140.185 158.511C139.707 158.147 139.264 157.74 138.862 157.293C138.522 156.908 138.272 156.583 137.97 156.22C137.403 155.509 136.896 154.791 136.39 154.073C134.506 151.238 132.809 148.283 131.31 145.228C129.798 142.204 128.437 139.18 127.182 136.05L133.192 133.653Z" fill="#EBB376"/>
<path d="M154.761 157.641L161.671 156.552L159.834 152.636C159.834 152.636 154.481 153.566 153.453 155.985L154.761 157.641Z" fill="#EBB376"/>
<path d="M161.663 153.498L160.907 151.827L159.833 152.636L161.663 156.552V153.498Z" fill="#EBB376"/>
<path d="M107.08 104.169C107.216 110.452 107.14 113.113 110.179 116.454C114.715 121.482 122.442 119.939 124.181 113.74C125.745 108.161 125.254 98.8243 119.221 96.0876C117.893 95.4785 116.431 95.2191 114.974 95.334C113.517 95.4489 112.114 95.9342 110.898 96.7439C109.681 97.5536 108.692 98.6608 108.024 99.9604C107.356 101.26 107.031 102.709 107.08 104.169Z" fill="#EBB376"/>
<path d="M102.015 92.8217C108.471 88.142 115.683 90.7956 119.629 94.0313C123.757 97.4182 123.099 103.927 120.574 106.619C120.836 107.017 121.01 107.466 121.083 107.937C121.156 108.408 121.127 108.889 120.998 109.348C121.316 111.362 120.874 113.422 119.755 115.128C118.637 116.833 116.924 118.06 114.95 118.571L114.594 118.662C106.528 120.582 97.2065 115.124 95.8003 106.959C94.946 101.977 96.3068 96.9494 102.015 92.8217Z" fill="#263238"/>
<path d="M119.13 107.08C119.234 108.264 119.741 109.377 120.567 110.232C121.686 111.389 122.835 110.724 123.039 109.355C123.213 108.123 122.842 106.037 121.482 105.379C120.121 104.721 119.032 105.681 119.13 107.08Z" fill="#EBB376"/>
<path opacity="0.3" d="M111.132 185.976C110.414 198.964 113.544 208.769 114.972 214.507C115.986 206.025 116.915 197.172 117.694 189.363C115.025 180.518 111.654 176.201 111.132 185.976Z" fill="black"/>
<path d="M108.07 299.814H97.0704L96.4883 295.959L108.131 295.566L108.07 299.814Z" fill="#407BFF"/>
<path opacity="0.3" d="M97.3123 142.362L101.13 145.386C101.13 145.386 101.531 144.32 102.015 142.793L99.7466 131.567L97.3123 142.362Z" fill="black"/>
<path d="M105.613 93.8725C107.586 91.6877 114.292 88.3537 120.045 90.9695C121.686 91.7169 123.077 92.9219 124.05 94.4398C125.024 95.9577 125.539 97.7241 125.534 99.5274L120.348 103.005L105.613 93.8725Z" fill="#263238"/>
<path d="M100.321 99.6106C103.171 97.2745 106.369 88.8073 100.321 91.7557C94.2732 94.7041 92.4361 106.074 100.321 99.6106Z" fill="#407BFF"/>
<path d="M100.964 94.1825C102.196 90.5839 94.0691 83.4246 88.5881 90.2286C83.1071 97.0326 97.4181 104.54 100.964 94.1825Z" fill="#263238"/>
<path d="M113.68 99.2023C108.955 97.1914 106.604 89.5709 114.715 89.7901C122.827 90.0094 122.593 103.005 113.68 99.2023Z" fill="#407BFF"/>
<path d="M112.153 95.256C109.287 91.6801 112.455 82.4872 120.673 85.428C128.89 88.3688 118.73 103.428 112.153 95.256Z" fill="#263238"/>
<path d="M126.675 165.655C126.675 165.655 133.812 214.417 136.322 233.604C138.93 253.525 146.551 298.189 146.551 298.189L138.083 299.482C138.083 299.482 124.702 256.881 120.975 237.49C116.908 216.36 108.879 165.67 108.879 165.67L126.675 165.655Z" fill="#407BFF"/>
<path opacity="0.6" d="M126.675 165.655C126.675 165.655 133.812 214.417 136.322 233.604C138.93 253.525 146.551 298.189 146.551 298.189L138.083 299.482C138.083 299.482 124.702 256.881 120.975 237.49C116.908 216.36 108.879 165.67 108.879 165.67L126.675 165.655Z" fill="black"/>
<path d="M129.699 127.439C132.844 128.195 136.723 136.844 136.723 136.844L129.231 146.445C129.231 146.445 121.489 135.49 122.525 132.149C123.598 128.664 125.882 126.509 129.699 127.439Z" fill="#263238"/>
<path d="M119.448 127.046C120.484 127.197 119.524 124.831 119.093 124.581C118.102 123.992 105.485 122.805 105.628 124.135C105.705 124.929 106.045 125.675 106.596 126.252C107.163 126.63 110.376 125.587 119.448 127.046Z" fill="#407BFF"/>
<path opacity="0.6" d="M119.448 127.046C120.484 127.197 119.524 124.831 119.093 124.581C118.102 123.992 105.485 122.805 105.628 124.135C105.705 124.929 106.045 125.675 106.596 126.252C107.163 126.63 110.376 125.587 119.448 127.046Z" fill="white"/>
<path d="M129.699 127.439C129.699 127.439 132.723 128.497 126.675 165.655H100.971C101.402 155.192 101.417 148.735 96.4354 127.25C100.035 126.507 103.683 126.027 107.352 125.814C111.24 125.533 115.144 125.533 119.032 125.814C123.984 126.252 129.699 127.439 129.699 127.439Z" fill="#263238"/>
<path d="M100.548 164.15L99.3913 166.418C99.3006 166.6 99.5123 166.781 99.8071 166.781H126.781C127.008 166.781 127.205 166.668 127.22 166.517L127.446 164.249C127.446 164.09 127.265 163.954 127.008 163.954H100.986C100.902 163.942 100.817 163.954 100.739 163.989C100.662 164.024 100.595 164.08 100.548 164.15Z" fill="#407BFF"/>
<path opacity="0.6" d="M100.548 164.15L99.3913 166.418C99.3006 166.6 99.5123 166.781 99.8071 166.781H126.781C127.008 166.781 127.205 166.668 127.22 166.517L127.446 164.249C127.446 164.09 127.265 163.954 127.008 163.954H100.986C100.902 163.942 100.817 163.954 100.739 163.989C100.662 164.024 100.595 164.08 100.548 164.15Z" fill="white"/>
<path d="M104.071 167.076H103.368C103.232 167.076 103.126 167 103.133 166.917L103.466 163.893C103.466 163.803 103.595 163.734 103.731 163.734H104.434C104.57 163.734 104.676 163.803 104.668 163.893L104.336 166.917C104.328 166.985 104.207 167.076 104.071 167.076Z" fill="#407BFF"/>
<path d="M120.96 167.076H120.264C120.121 167.076 120.015 167 120.03 166.917L120.355 163.893C120.355 163.803 120.484 163.734 120.627 163.734H121.323C121.459 163.734 121.565 163.803 121.557 163.893L121.232 166.917C121.232 166.985 121.111 167.076 120.96 167.076Z" fill="#407BFF"/>
<path opacity="0.6" d="M104.071 167.076H103.368C103.232 167.076 103.126 167 103.133 166.917L103.466 163.893C103.466 163.803 103.595 163.734 103.731 163.734H104.434C104.57 163.734 104.676 163.803 104.668 163.893L104.336 166.917C104.328 166.985 104.207 167.076 104.071 167.076Z" fill="black"/>
<path opacity="0.6" d="M120.96 167.076H120.264C120.121 167.076 120.015 167 120.03 166.917L120.355 163.893C120.355 163.803 120.484 163.734 120.627 163.734H121.323C121.459 163.734 121.565 163.803 121.557 163.893L121.232 166.917C121.232 166.985 121.111 167.076 120.96 167.076Z" fill="black"/>
<path d="M147.798 298.189L136.957 300.034L135.725 295.944L147.329 293.955L147.798 298.189Z" fill="#407BFF"/>
<path d="M255.838 87.1366C250.072 77.9029 241.697 70.5864 231.772 66.1123C221.848 61.6382 210.819 60.2074 200.082 62.0009C189.344 63.7944 179.379 68.7315 171.448 76.188C163.516 83.6446 157.973 93.2856 155.521 103.892C153.068 114.499 153.816 125.594 157.669 135.776C161.522 145.957 168.308 154.768 177.168 161.093C186.028 167.418 196.565 170.974 207.446 171.311C218.327 171.648 229.064 168.751 238.299 162.986C244.431 159.158 249.749 154.159 253.95 148.275C258.15 142.391 261.15 135.738 262.779 128.694C264.408 121.651 264.633 114.355 263.442 107.225C262.251 100.094 259.667 93.2684 255.838 87.1366ZM172.308 139.301C167.759 132.014 165.473 123.542 165.739 114.956C166.005 106.37 168.812 98.0562 173.803 91.0652C178.794 84.0742 185.746 78.7202 193.78 75.6803C201.814 72.6404 210.569 72.051 218.938 73.9868C227.307 75.9226 234.914 80.2965 240.797 86.5555C246.68 92.8146 250.576 100.678 251.99 109.15C253.404 117.623 252.275 126.325 248.744 134.155C245.213 141.986 239.439 148.594 232.152 153.143C227.314 156.163 221.927 158.201 216.301 159.14C210.675 160.078 204.919 159.9 199.361 158.613C193.804 157.327 188.555 154.959 183.913 151.644C179.271 148.329 175.327 144.132 172.308 139.293V139.301Z" fill="#407BFF"/>
<path d="M255.838 87.1366C250.072 77.9029 241.697 70.5864 231.772 66.1123C221.848 61.6382 210.819 60.2074 200.082 62.0009C189.344 63.7944 179.379 68.7315 171.448 76.188C163.516 83.6446 157.973 93.2856 155.521 103.892C153.068 114.499 153.816 125.594 157.669 135.776C161.522 145.957 168.308 154.768 177.168 161.093C186.028 167.418 196.565 170.974 207.446 171.311C218.327 171.648 229.064 168.751 238.299 162.986C244.431 159.158 249.749 154.159 253.95 148.275C258.15 142.391 261.15 135.738 262.779 128.694C264.408 121.651 264.633 114.355 263.442 107.225C262.251 100.094 259.667 93.2684 255.838 87.1366ZM172.308 139.301C167.759 132.014 165.473 123.542 165.739 114.956C166.005 106.37 168.812 98.0562 173.803 91.0652C178.794 84.0742 185.746 78.7202 193.78 75.6803C201.814 72.6404 210.569 72.051 218.938 73.9868C227.307 75.9226 234.914 80.2965 240.797 86.5555C246.68 92.8146 250.576 100.678 251.99 109.15C253.404 117.623 252.275 126.325 248.744 134.155C245.213 141.986 239.439 148.594 232.152 153.143C227.314 156.163 221.927 158.201 216.301 159.14C210.675 160.078 204.919 159.9 199.361 158.613C193.804 157.327 188.555 154.959 183.913 151.644C179.271 148.329 175.327 144.132 172.308 139.293V139.301Z" fill="#407BFF"/>
<path opacity="0.5" d="M255.838 87.1366C250.072 77.9029 241.697 70.5864 231.772 66.1123C221.848 61.6382 210.819 60.2074 200.082 62.0009C189.344 63.7944 179.379 68.7315 171.448 76.188C163.516 83.6446 157.973 93.2856 155.521 103.892C153.068 114.499 153.816 125.594 157.669 135.776C161.522 145.957 168.308 154.768 177.168 161.093C186.028 167.418 196.565 170.974 207.446 171.311C218.327 171.648 229.064 168.751 238.299 162.986C244.431 159.158 249.749 154.159 253.95 148.275C258.15 142.391 261.15 135.738 262.779 128.694C264.408 121.651 264.633 114.355 263.442 107.225C262.251 100.094 259.667 93.2684 255.838 87.1366ZM172.308 139.301C167.759 132.014 165.473 123.542 165.739 114.956C166.005 106.37 168.812 98.0562 173.803 91.0652C178.794 84.0742 185.746 78.7202 193.78 75.6803C201.814 72.6404 210.569 72.051 218.938 73.9868C227.307 75.9226 234.914 80.2965 240.797 86.5555C246.68 92.8146 250.576 100.678 251.99 109.15C253.404 117.623 252.275 126.325 248.744 134.155C245.213 141.986 239.439 148.594 232.152 153.143C227.314 156.163 221.927 158.201 216.301 159.14C210.675 160.078 204.919 159.9 199.361 158.613C193.804 157.327 188.555 154.959 183.913 151.644C179.271 148.329 175.327 144.132 172.308 139.293V139.301Z" fill="white"/>
<path opacity="0.2" d="M249.631 91.0148C254.628 99.0221 257.139 108.331 256.846 117.765C256.553 127.199 253.469 136.335 247.984 144.016C242.5 151.698 234.861 157.58 226.033 160.921C217.205 164.261 207.585 164.909 198.389 162.782C189.193 160.655 180.834 155.85 174.37 148.973C167.905 142.096 163.624 133.456 162.069 124.147C160.514 114.837 161.754 105.276 165.632 96.6708C169.511 88.0659 175.854 80.8043 183.859 75.8041C189.176 72.483 195.096 70.242 201.279 69.2091C207.462 68.1761 213.788 68.3715 219.896 69.784C226.004 71.1965 231.774 73.7985 236.876 77.4414C241.978 81.0842 246.312 85.6965 249.631 91.0148Z" fill="#FAFAFA"/>
<path opacity="0.1" d="M256.413 109.537L182.325 155.789C176.283 151.689 171.263 146.258 167.651 139.913L248.543 89.4046C252.67 95.4255 255.363 102.313 256.413 109.537Z" fill="#E6E6E6"/>
</svg>
