<svg width="98" height="152" viewBox="0 0 98 152" fill="none" xmlns="http://www.w3.org/2000/svg">
<g clip-path="url(#clip0_578_726)">
<path d="M8.25979 116.763C10.3123 116.763 12.1008 117.171 13.6302 117.988C15.1646 118.8 16.3503 119.938 17.1873 121.406C18.0292 122.875 18.4527 124.569 18.4527 126.487C18.4527 128.388 18.0292 130.074 17.1873 131.549C16.3503 133.023 15.1597 134.169 13.6203 134.986C12.0784 135.798 10.2924 136.202 8.25979 136.202H0.976318V116.763H8.25979ZM7.96088 132.107C9.74687 132.107 11.1393 131.618 12.1357 130.642C13.132 129.661 13.6302 128.276 13.6302 126.487C13.6302 124.694 13.132 123.299 12.1357 122.302C11.1393 121.306 9.74687 120.808 7.96088 120.808H5.71904V132.107H7.96088Z" fill="#14274E"/>
<path d="M33.2106 132.764H25.957L24.7913 136.202H19.8293L26.8637 116.763H32.3537L39.3781 136.202H34.3664L33.2106 132.764ZM31.9851 129.118L29.5838 121.993L27.2025 129.118H31.9851Z" fill="#14274E"/>
<path d="M51.4237 136.202L47.3784 128.868H46.2525V136.202H41.5098V116.763H49.4608C50.9952 116.763 52.3005 117.032 53.3765 117.57C54.4576 118.103 55.2647 118.835 55.7977 119.772C56.3358 120.703 56.6048 121.739 56.6048 122.88C56.6048 124.176 56.2386 125.331 55.5088 126.348C54.7764 127.364 53.7004 128.081 52.2805 128.5L56.7742 136.202H51.4237ZM46.2525 125.511H49.1818C50.0512 125.511 50.7013 125.299 51.1347 124.873C51.5656 124.45 51.7823 123.852 51.7823 123.08C51.7823 122.342 51.5656 121.762 51.1347 121.336C50.7013 120.912 50.0512 120.698 49.1818 120.698H46.2525V125.511Z" fill="#14274E"/>
<path d="M71.6671 132.764H64.4136L63.2478 136.202H58.2859L65.3203 116.763H70.8103L77.8347 136.202H72.8229L71.6671 132.764ZM70.4416 129.118L68.0404 121.993L65.659 129.118H70.4416Z" fill="#14274E"/>
<path d="M91.2353 136.202L84.709 127.623V136.202H79.9663V116.763H84.709V125.291L91.1854 116.763H96.7452L89.2126 126.288L97.0242 136.202H91.2353Z" fill="#14274E"/>
<path d="M16.3064 151.106L14.6126 148.196H13.4867V151.106H12.5601V143.991H14.8517C15.3898 143.991 15.8431 144.086 16.2167 144.27C16.5879 144.457 16.8644 144.706 17.0437 145.018C17.2281 145.332 17.3227 145.685 17.3227 146.084C17.3227 146.577 17.1782 147.01 16.8943 147.389C16.6153 147.763 16.1918 148.007 15.6289 148.126L17.4124 151.106H16.3064ZM13.4867 147.449H14.8517C15.3549 147.449 15.7335 147.327 15.9876 147.08C16.2392 146.836 16.3662 146.502 16.3662 146.084C16.3662 145.665 16.2392 145.342 15.9876 145.107C15.741 144.876 15.3624 144.759 14.8517 144.759H13.4867V147.449Z" fill="#14274E"/>
<path d="M21.0353 144.749V147.13H23.6258V147.887H21.0353V150.338H23.9347V151.106H20.1086V143.982H23.9347V144.749H21.0353Z" fill="#14274E"/>
<path d="M30.8928 149.521H27.7841L27.2162 151.106H26.2397L28.8104 144.031H29.8765L32.4372 151.106H31.4607L30.8928 149.521ZM30.6238 148.774L29.3385 145.177L28.0531 148.774H30.6238Z" fill="#14274E"/>
<path d="M35.8365 150.348H38.3275V151.106H34.9099V143.991H35.8365V150.348Z" fill="#14274E"/>
<path d="M45.66 144.749V147.13H48.2506V147.887H45.66V150.338H48.5595V151.106H44.7334V143.982H48.5595V144.749H45.66Z" fill="#14274E"/>
<path d="M53.565 151.175C53.0918 151.175 52.6708 151.093 52.2996 150.926C51.9335 150.762 51.6445 150.533 51.4328 150.239C51.2186 149.94 51.109 149.599 51.104 149.212H52.1004C52.1328 149.546 52.2698 149.825 52.5089 150.049C52.753 150.276 53.1067 150.388 53.565 150.388C54.0084 150.388 54.3572 150.279 54.6112 150.059C54.8703 149.84 54.9998 149.559 54.9998 149.212C54.9998 148.941 54.9226 148.719 54.7706 148.545C54.6162 148.373 54.4269 148.243 54.2027 148.156C53.9835 148.072 53.6846 147.974 53.306 147.867C52.8327 147.748 52.4541 147.628 52.1701 147.509C51.8911 147.384 51.647 147.19 51.4428 146.931C51.2435 146.667 51.1439 146.313 51.1439 145.875C51.1439 145.484 51.2435 145.137 51.4428 144.838C51.642 144.539 51.916 144.31 52.2698 144.151C52.6285 143.986 53.0395 143.902 53.5053 143.902C54.1678 143.902 54.7134 144.069 55.1393 144.4C55.5628 144.734 55.8069 145.175 55.8667 145.725H54.8404C54.8055 145.454 54.6635 145.215 54.412 145.008C54.1579 144.804 53.8266 144.699 53.4156 144.699C53.022 144.699 52.7032 144.799 52.4591 144.998C52.2199 145.197 52.1004 145.481 52.1004 145.845C52.1004 146.104 52.1726 146.318 52.3196 146.482C52.464 146.642 52.6434 146.766 52.8576 146.851C53.0693 146.931 53.3707 147.028 53.7643 147.14C54.2276 147.267 54.6038 147.394 54.8902 147.519C55.1742 147.646 55.4208 147.842 55.6275 148.106C55.8318 148.366 55.9364 148.719 55.9364 149.163C55.9364 149.516 55.8417 149.845 55.6574 150.149C55.4706 150.455 55.1991 150.705 54.8404 150.896C54.4817 151.083 54.0558 151.175 53.565 151.175Z" fill="#14274E"/>
<path d="M63.0217 143.991V144.749H61.0887V151.106H60.1522V144.749H58.2092V143.991H63.0217Z" fill="#14274E"/>
<path d="M69.7173 149.521H66.6086L66.0407 151.106H65.0642L67.6348 144.031H68.701L71.2616 151.106H70.2852L69.7173 149.521ZM69.4482 148.774L68.1629 145.177L66.8776 148.774H69.4482Z" fill="#14274E"/>
<path d="M78.1084 143.991V144.749H76.1754V151.106H75.2388V144.749H73.2959V143.991H78.1084Z" fill="#14274E"/>
<path d="M81.5265 144.749V147.13H84.117V147.887H81.5265V150.338H84.4259V151.106H80.5999V143.982H84.4259V144.749H81.5265Z" fill="#14274E"/>
<mask id="mask0_578_726" style="mask-type:luminance" maskUnits="userSpaceOnUse" x="13" y="0" width="71" height="101">
<path d="M13.0996 0.175301H83.8021V100.517H13.0996V0.175301Z" fill="white"/>
</mask>
<g mask="url(#mask0_578_726)">
<path fill-rule="evenodd" clip-rule="evenodd" d="M13.2341 33.3965L46.4605 0.165047V15.681L23.4444 38.7022V100.517H13.1021L13.2341 33.3965ZM83.6052 49.6498L83.7123 100.517H74.6703V53.6677L54.5262 36.2212V24.464L83.6052 49.6498Z" fill="#14274E"/>
</g>
</g>
<defs>
<clipPath id="clip0_578_726">
<rect width="98" height="152" fill="white"/>
</clipPath>
</defs>
</svg>
