<svg width="378" height="378" viewBox="0 0 378 378" fill="none" xmlns="http://www.w3.org/2000/svg">
<path d="M351.434 209.707C340.298 239.516 317.558 271.782 285.556 281.338C237.172 295.777 231.427 334.749 144.819 331.136C132.168 330.67 119.605 328.83 107.352 325.647C101.37 324.066 95.4948 322.109 89.7599 319.788C39.1608 299.293 12.7688 254.19 10.584 207C7.69609 144.925 50.9998 115.343 79.1456 98.023C107.292 80.703 141.213 13.608 226.377 16.4581C239.382 16.8483 252.299 18.7356 264.872 22.0828C293.532 29.8393 322.661 46.993 339.595 72.0695C340.865 73.9595 342.08 75.8848 343.239 77.8453C365.904 116.288 366.607 169.064 351.434 209.707Z" fill="#407BFF"/>
<path opacity="0.7" d="M351.434 209.707C340.298 239.516 317.558 271.782 285.556 281.338C237.172 295.777 231.427 334.749 144.819 331.136C132.168 330.67 119.605 328.83 107.352 325.647C101.37 324.066 95.4948 322.109 89.7599 319.788C39.1608 299.293 12.7688 254.19 10.584 207C7.69609 144.925 50.9998 115.343 79.1456 98.023C107.292 80.703 141.213 13.608 226.377 16.4581C239.382 16.8483 252.299 18.7356 264.872 22.0828C293.532 29.8393 322.661 46.993 339.595 72.0695C340.865 73.9595 342.08 75.8848 343.239 77.8453C365.904 116.288 366.607 169.064 351.434 209.707Z" fill="white"/>
<g opacity="0.3">
<path d="M19.4519 50.085V222.702H75.5244V50.085H19.4519ZM72.697 53.9255V79.38H49.3593V53.9255H72.697ZM45.8741 53.9255V79.38H22.2718V53.9255H45.8741ZM22.2718 83.4473H45.8741V108.72H22.2718V83.4473ZM72.697 218.87H22.2718V113.105H72.697V218.87ZM49.3593 108.72V83.4473H72.697V108.72H49.3593Z" stroke="black" stroke-linecap="round" stroke-linejoin="round"/>
<path d="M75.3052 50.085V222.702H131.378V50.085H75.3052ZM128.52 53.9255V79.38H105.213V53.9255H128.52ZM101.697 53.9255V79.38H78.1251V53.9255H101.697ZM78.0948 83.4473H101.697V108.72H78.1251L78.0948 83.4473ZM128.52 218.87H78.0948V113.105H128.52V218.87ZM105.182 108.72V83.4473H128.52V108.72H105.182Z" stroke="black" stroke-linecap="round" stroke-linejoin="round"/>
<path d="M60.1474 141.758L46.0707 159.282" stroke="black" stroke-linecap="round" stroke-linejoin="round"/>
<path d="M63.6401 137.411L61.4023 140.193" stroke="black" stroke-linecap="round" stroke-linejoin="round"/>
<path d="M30.7617 172.058L27.8813 175.445" stroke="black" stroke-linecap="round" stroke-linejoin="round"/>
<path d="M49.4575 150.089L32.9238 169.518" stroke="black" stroke-linecap="round" stroke-linejoin="round"/>
<path d="M116.87 147.11L102.793 164.627" stroke="black" stroke-linecap="round" stroke-linejoin="round"/>
<path d="M120.363 142.763L118.125 145.545" stroke="black" stroke-linecap="round" stroke-linejoin="round"/>
<path d="M87.4844 177.403L84.604 180.797" stroke="black" stroke-linecap="round" stroke-linejoin="round"/>
<path d="M106.18 155.441L89.6465 174.87" stroke="black" stroke-linecap="round" stroke-linejoin="round"/>
<path d="M123.372 57.9323L116.628 66.3163" stroke="black" stroke-linecap="round" stroke-linejoin="round"/>
<path d="M125.042 55.8457L123.969 57.1838" stroke="black" stroke-linecap="round" stroke-linejoin="round"/>
<path d="M109.303 72.4323L107.927 74.0502" stroke="black" stroke-linecap="round" stroke-linejoin="round"/>
<path d="M118.254 61.9164L110.338 71.2152" stroke="black" stroke-linecap="round" stroke-linejoin="round"/>
<path d="M97.078 57.9323L90.3345 66.3163" stroke="black" stroke-linecap="round" stroke-linejoin="round"/>
<path d="M98.7487 55.8457L97.6752 57.1838" stroke="black" stroke-linecap="round" stroke-linejoin="round"/>
<path d="M83.0089 72.4323L81.6329 74.0502" stroke="black" stroke-linecap="round" stroke-linejoin="round"/>
<path d="M91.9599 61.9164L84.0446 71.2152" stroke="black" stroke-linecap="round" stroke-linejoin="round"/>
<path d="M97.078 89.3441L90.3345 97.7357" stroke="black" stroke-linecap="round" stroke-linejoin="round"/>
<path d="M98.7487 87.2651L97.6752 88.5956" stroke="black" stroke-linecap="round" stroke-linejoin="round"/>
<path d="M83.0089 103.852L81.6329 105.47" stroke="black" stroke-linecap="round" stroke-linejoin="round"/>
<path d="M91.9599 93.3358L84.0446 102.635" stroke="black" stroke-linecap="round" stroke-linejoin="round"/>
<path d="M120.529 89.3441L113.786 97.7357" stroke="black" stroke-linecap="round" stroke-linejoin="round"/>
<path d="M122.2 87.2651L121.126 88.5956" stroke="black" stroke-linecap="round" stroke-linejoin="round"/>
<path d="M106.46 103.852L105.084 105.47" stroke="black" stroke-linecap="round" stroke-linejoin="round"/>
<path d="M115.411 93.3358L107.496 102.635" stroke="black" stroke-linecap="round" stroke-linejoin="round"/>
<path d="M67.9418 57.9323L61.1982 66.3163" stroke="black" stroke-linecap="round" stroke-linejoin="round"/>
<path d="M69.6125 55.8457L68.5389 57.1838" stroke="black" stroke-linecap="round" stroke-linejoin="round"/>
<path d="M53.8726 72.4323L52.4967 74.0502" stroke="black" stroke-linecap="round" stroke-linejoin="round"/>
<path d="M62.8236 61.9164L54.9083 71.2152" stroke="black" stroke-linecap="round" stroke-linejoin="round"/>
<path d="M67.9418 88.6183L61.1982 97.0024" stroke="black" stroke-linecap="round" stroke-linejoin="round"/>
<path d="M69.6125 86.5317L68.5389 87.8699" stroke="black" stroke-linecap="round" stroke-linejoin="round"/>
<path d="M53.8726 103.118L52.4967 104.736" stroke="black" stroke-linecap="round" stroke-linejoin="round"/>
<path d="M62.8236 92.6024L54.9083 101.901" stroke="black" stroke-linecap="round" stroke-linejoin="round"/>
<path d="M42.3588 88.6183L35.6152 97.0024" stroke="black" stroke-linecap="round" stroke-linejoin="round"/>
<path d="M44.0295 86.5317L42.9559 87.8699" stroke="black" stroke-linecap="round" stroke-linejoin="round"/>
<path d="M28.2895 103.118L26.9136 104.736" stroke="black" stroke-linecap="round" stroke-linejoin="round"/>
<path d="M37.2406 92.6024L29.3253 101.901" stroke="black" stroke-linecap="round" stroke-linejoin="round"/>
<path d="M40.5821 57.9323L33.8386 66.3163" stroke="black" stroke-linecap="round" stroke-linejoin="round"/>
<path d="M42.2528 55.8457L41.1793 57.1838" stroke="black" stroke-linecap="round" stroke-linejoin="round"/>
<path d="M26.513 72.4323L25.1371 74.0502" stroke="black" stroke-linecap="round" stroke-linejoin="round"/>
<path d="M35.464 61.9164L27.5487 71.2152" stroke="black" stroke-linecap="round" stroke-linejoin="round"/>
</g>
<path d="M337.35 261.72V205.133C337.351 203.898 337.108 202.674 336.636 201.533C336.164 200.391 335.471 199.354 334.598 198.481C333.724 197.607 332.687 196.915 331.546 196.442C330.404 195.97 329.181 195.727 327.945 195.728H241.973V262.377" stroke="#263238" stroke-linejoin="round"/>
<path d="M242.676 195.728H155.124C153.889 195.728 152.666 195.972 151.526 196.444C150.385 196.917 149.349 197.61 148.476 198.483C147.604 199.357 146.912 200.394 146.44 201.535C145.968 202.676 145.726 203.898 145.727 205.133V261.72" stroke="#263238" stroke-linejoin="round"/>
<path d="M345.847 267.972V289.979H242.018V261.72H339.595C341.253 261.722 342.842 262.381 344.014 263.553C345.186 264.725 345.845 266.314 345.847 267.972Z" stroke="#263238" stroke-linejoin="round"/>
<path d="M242.812 261.72H143.489C142.668 261.72 141.855 261.881 141.096 262.196C140.338 262.51 139.648 262.97 139.068 263.551C138.487 264.131 138.027 264.821 137.713 265.579C137.398 266.338 137.237 267.151 137.237 267.972V289.979H242.812" stroke="#263238" stroke-linejoin="round"/>
<path d="M346.021 289.979H137.237V325.435H346.021V289.979Z" stroke="#263238" stroke-linejoin="round"/>
<path d="M145.727 224.169C145.14 223.557 144.436 223.069 143.657 222.735C142.877 222.402 142.038 222.228 141.191 222.226H122.291C121.462 222.225 120.641 222.388 119.875 222.704C119.11 223.02 118.414 223.485 117.827 224.07C117.241 224.656 116.776 225.351 116.459 226.117C116.141 226.882 115.978 227.703 115.978 228.531V319.138C115.979 319.966 116.143 320.785 116.461 321.55C116.779 322.315 117.244 323.009 117.83 323.594C118.416 324.179 119.112 324.642 119.877 324.958C120.643 325.274 121.463 325.436 122.291 325.435H141.191" stroke="#263238" stroke-linejoin="round"/>
<path d="M339.716 325.435H358.616C360.287 325.435 361.89 324.772 363.072 323.591C364.254 322.41 364.919 320.809 364.921 319.138V228.531C364.921 226.859 364.257 225.255 363.075 224.073C361.892 222.89 360.288 222.226 358.616 222.226H339.716C338.904 222.225 338.1 222.385 337.35 222.695" stroke="#263238" stroke-linejoin="round"/>
<path d="M9.07202 325.874H368.338" stroke="#263238" stroke-miterlimit="10"/>
<path d="M195.305 218.885H173.018V250.266H195.305V218.885Z" fill="white" stroke="#263238" stroke-miterlimit="10"/>
<path d="M194.095 220.586H174.228V248.558H194.095V220.586Z" fill="white" stroke="#263238" stroke-miterlimit="10"/>
<path d="M188.456 228.531H179.875V240.612H188.456V228.531Z" fill="#CFCFCF" stroke="#263238" stroke-miterlimit="10"/>
<path d="M217.327 208.996C217.327 208.996 213.638 207.522 211.423 206.539C210.155 206.012 209.112 205.057 208.475 203.84L195.57 245.503L201.618 247.106L217.327 208.996Z" fill="white" stroke="#263238" stroke-miterlimit="10"/>
<path d="M195.57 245.503L213.268 202.366C213.268 202.366 212.897 201.61 216.586 203.84C220.276 206.07 221.009 211.211 221.009 211.211L201.852 248.089L195.57 245.503Z" fill="white" stroke="#263238" stroke-miterlimit="10"/>
<path d="M223.519 239.319H167.892V275.895H223.519V239.319Z" fill="#CFCFCF" stroke="#263238" stroke-miterlimit="10"/>
<path d="M223.519 239.319H194.942V275.895H223.519V239.319Z" fill="#CFCFCF" stroke="#263238" stroke-miterlimit="10"/>
<path d="M229.62 275.864H161.315V333.827H229.62V275.864Z" fill="#CFCFCF" stroke="#263238" stroke-miterlimit="10"/>
<path d="M229.62 275.864H194.526V333.827H229.62V275.864Z" fill="#CFCFCF" stroke="#263238" stroke-miterlimit="10"/>
<path d="M48.2404 239.138C51.7476 239.138 54.5908 231.678 54.5908 222.476C54.5908 213.273 51.7476 205.813 48.2404 205.813C44.7332 205.813 41.89 213.273 41.89 222.476C41.89 231.678 44.7332 239.138 48.2404 239.138Z" fill="#407BFF" stroke="#263238" stroke-miterlimit="10"/>
<path d="M67.9809 212.22C69.9675 205.969 69.3716 200.2 66.6498 199.335C63.9281 198.47 60.1112 202.836 58.1246 209.088C56.1379 215.339 56.7339 221.108 59.4556 221.973C62.1774 222.838 65.9943 218.471 67.9809 212.22Z" fill="#407BFF" stroke="#263238" stroke-miterlimit="10"/>
<path d="M21.3646 249.896C14.8932 248.8 10.0246 245.632 10.516 242.812C11.0074 239.992 16.6169 238.609 23.0883 239.705C29.5596 240.801 34.4283 243.969 33.9369 246.781C33.4455 249.593 27.8284 250.992 21.3646 249.896Z" fill="#407BFF" stroke="#263238" stroke-miterlimit="10"/>
<path d="M73.9486 234.495C79.3503 229.138 81.7273 222.777 79.2577 220.286C76.7881 217.796 70.4072 220.12 65.0055 225.476C59.6038 230.833 57.2269 237.194 59.6964 239.685C62.166 242.175 68.5469 239.851 73.9486 234.495Z" fill="#407BFF" stroke="#263238" stroke-miterlimit="10"/>
<path d="M36.7416 219.792C41.9655 227.352 43.5456 235.358 40.2192 237.641C36.8928 239.924 30.0056 235.615 24.7816 228.04C19.5577 220.465 17.9776 212.474 21.304 210.198C24.6304 207.923 31.5176 212.217 36.7416 219.792Z" fill="#407BFF" stroke="#263238" stroke-miterlimit="10"/>
<path d="M48.6864 238.314L49.1778 261.221" stroke="#263238" stroke-miterlimit="10" stroke-linecap="round"/>
<path d="M48.0891 216.284L48.6864 238.314" stroke="#263238" stroke-miterlimit="10" stroke-linecap="round"/>
<path d="M48.1345 212.685L48.0891 214.371" stroke="#263238" stroke-miterlimit="10" stroke-linecap="round"/>
<path d="M40.1965 236.552C43.8357 244.083 45.9673 252.252 46.4713 260.601" stroke="#263238" stroke-miterlimit="10" stroke-linecap="round"/>
<path d="M29.2799 219.86C33.6425 224.916 37.3136 230.529 40.1965 236.552" stroke="#263238" stroke-miterlimit="10" stroke-linecap="round"/>
<path d="M25.8477 216.216C25.8477 216.216 26.5054 216.813 27.5865 217.97" stroke="#263238" stroke-miterlimit="10" stroke-linecap="round"/>
<path d="M60.102 238.896C55.6475 245.135 52.1726 252.019 49.7977 259.308" stroke="#263238" stroke-miterlimit="10" stroke-linecap="round"/>
<path d="M67.4126 230.512C64.7192 233.072 62.2717 235.879 60.1021 238.896" stroke="#263238" stroke-miterlimit="10" stroke-linecap="round"/>
<path d="M75.2144 224.532C73.2285 225.649 71.3638 226.969 69.6503 228.471" stroke="#263238" stroke-miterlimit="10" stroke-linecap="round"/>
<path d="M59.8374 220.404C56.3145 231.48 51.5895 247.847 49.382 262.06" stroke="#263238" stroke-miterlimit="10" stroke-linecap="round"/>
<path d="M61.992 213.835C61.3645 215.702 60.6388 217.925 59.8525 220.404" stroke="#263238" stroke-miterlimit="10" stroke-linecap="round"/>
<path d="M64.1768 207.477C64.1768 207.477 63.5569 209.178 62.5665 212.081" stroke="#263238" stroke-miterlimit="10" stroke-linecap="round"/>
<path d="M33.6118 245.246C36.1277 246.13 38.4072 247.579 40.2749 249.482C42.1426 251.385 43.5487 253.692 44.3848 256.224" stroke="#263238" stroke-miterlimit="10" stroke-linecap="round"/>
<path d="M25.4847 243.598C28.261 243.737 31.0007 244.293 33.6117 245.246" stroke="#263238" stroke-miterlimit="10" stroke-linecap="round"/>
<path d="M20.223 243.727C20.223 243.727 20.979 243.613 22.2945 243.561" stroke="#263238" stroke-miterlimit="10" stroke-linecap="round"/>
<path d="M76.7038 249.896C83.1676 248.8 88.0438 245.632 87.5524 242.812C87.061 239.992 81.4439 238.609 74.9801 239.705C68.5163 240.801 63.6401 243.969 64.1315 246.781C64.6229 249.593 70.24 250.992 76.7038 249.896Z" fill="#407BFF" stroke="#263238" stroke-miterlimit="10"/>
<path d="M64.5927 245.193C62.046 246.066 59.7356 247.516 57.8418 249.429C55.9481 251.343 54.5224 253.668 53.676 256.224" stroke="#263238" stroke-miterlimit="10" stroke-linecap="round"/>
<path d="M73.2564 243.561C70.3012 243.651 67.3781 244.202 64.5927 245.193" stroke="#263238" stroke-miterlimit="10" stroke-linecap="round"/>
<path d="M77.8681 243.727C77.8681 243.727 77.3464 243.651 76.4619 243.598" stroke="#263238" stroke-miterlimit="10" stroke-linecap="round"/>
<path d="M64.502 275.691C66.4645 271.595 67.4971 267.116 67.526 262.574C67.5291 259.858 67.1239 257.156 66.3239 254.56H32.4627C31.6627 257.156 31.2575 259.858 31.2606 262.574C31.2895 267.116 32.3221 271.595 34.2846 275.691H64.502Z" fill="#263238"/>
<path d="M31.5933 258.31C31.495 258.922 31.4269 259.55 31.3665 260.185H67.3974C67.3445 259.55 67.2689 258.922 67.1706 258.31H31.5933Z" fill="#7A7A7A"/>
<path d="M67.0194 267.889C67.1328 267.269 67.2311 266.641 67.2991 266.014H31.4647C31.5403 266.641 31.6386 267.269 31.752 267.889H67.0194Z" fill="#7A7A7A"/>
<path d="M35.6379 262.68C35.6379 262.968 35.5523 263.25 35.392 263.49C35.2317 263.73 35.0038 263.917 34.7372 264.028C34.4706 264.138 34.1772 264.167 33.8942 264.111C33.6111 264.054 33.3511 263.916 33.1471 263.711C32.943 263.507 32.8041 263.247 32.7478 262.964C32.6915 262.681 32.7204 262.388 32.8308 262.121C32.9412 261.855 33.1282 261.627 33.3682 261.467C33.6081 261.306 33.8902 261.221 34.1788 261.221C34.5658 261.221 34.9369 261.374 35.2105 261.648C35.4842 261.922 35.6379 262.293 35.6379 262.68Z" fill="#8C8C8C"/>
<path d="M42.9257 262.68C42.9257 262.968 42.8402 263.25 42.6798 263.49C42.5195 263.73 42.2916 263.917 42.025 264.028C41.7584 264.138 41.465 264.167 41.182 264.111C40.899 264.054 40.639 263.916 40.4349 263.711C40.2309 263.507 40.0919 263.247 40.0356 262.964C39.9793 262.681 40.0082 262.388 40.1186 262.121C40.2291 261.855 40.4161 261.627 40.656 261.467C40.896 261.306 41.1781 261.221 41.4666 261.221C41.6585 261.22 41.8487 261.257 42.0262 261.33C42.2037 261.403 42.3649 261.51 42.5006 261.646C42.6363 261.781 42.7437 261.943 42.8167 262.12C42.8897 262.298 42.9267 262.488 42.9257 262.68Z" fill="#8C8C8C"/>
<path d="M50.2211 262.68C50.2211 262.968 50.1356 263.25 49.9752 263.49C49.8149 263.73 49.587 263.917 49.3204 264.028C49.0538 264.138 48.7604 264.167 48.4774 264.111C48.1944 264.054 47.9344 263.916 47.7303 263.711C47.5263 263.507 47.3873 263.247 47.331 262.964C47.2747 262.681 47.3036 262.388 47.414 262.121C47.5245 261.855 47.7115 261.627 47.9514 261.467C48.1914 261.306 48.4735 261.221 48.7621 261.221C49.149 261.221 49.5202 261.374 49.7938 261.648C50.0674 261.922 50.2211 262.293 50.2211 262.68Z" fill="#8C8C8C"/>
<path d="M57.509 262.68C57.509 262.968 57.4234 263.25 57.2631 263.49C57.1028 263.73 56.8749 263.917 56.6083 264.028C56.3417 264.138 56.0483 264.167 55.7652 264.111C55.4822 264.054 55.2222 263.916 55.0182 263.711C54.8141 263.507 54.6752 263.247 54.6189 262.964C54.5626 262.681 54.5915 262.388 54.7019 262.121C54.8123 261.855 54.9993 261.627 55.2393 261.467C55.4792 261.306 55.7613 261.221 56.0499 261.221C56.2418 261.22 56.432 261.257 56.6094 261.33C56.7869 261.403 56.9482 261.51 57.0839 261.646C57.2195 261.781 57.327 261.943 57.4 262.12C57.4729 262.298 57.51 262.488 57.509 262.68Z" fill="#8C8C8C"/>
<path d="M64.7968 262.68C64.7968 262.968 64.7112 263.25 64.5509 263.49C64.3906 263.73 64.1627 263.917 63.8961 264.028C63.6295 264.138 63.3361 264.167 63.0531 264.111C62.7701 264.054 62.5101 263.916 62.306 263.711C62.102 263.507 61.963 263.247 61.9067 262.964C61.8504 262.681 61.8793 262.388 61.9897 262.121C62.1002 261.855 62.2872 261.627 62.5271 261.467C62.7671 261.306 63.0492 261.221 63.3377 261.221C63.5296 261.22 63.7198 261.257 63.8973 261.33C64.0748 261.403 64.236 261.51 64.3717 261.646C64.5074 261.781 64.6148 261.943 64.6878 262.12C64.7608 262.298 64.7978 262.488 64.7968 262.68Z" fill="#8C8C8C"/>
<path d="M93.7591 275.864H25.4545V333.827H93.7591V275.864Z" fill="#CFCFCF" stroke="#263238" stroke-miterlimit="10"/>
<path d="M93.759 275.864H58.6655V333.827H93.759V275.864Z" fill="#CFCFCF" stroke="#263238" stroke-miterlimit="10"/>
<path d="M293.88 93.8423H255.021V148.554H293.88V93.8423Z" fill="white" stroke="#263238" stroke-miterlimit="10"/>
<path d="M291.771 96.8134H257.138V145.583H291.771V96.8134Z" fill="white" stroke="#263238" stroke-miterlimit="10"/>
<path d="M281.935 110.671H266.974V131.733H281.935V110.671Z" fill="#CFCFCF" stroke="#263238" stroke-miterlimit="10"/>
<path d="M258.34 160.083L252.436 156.144L254.651 127.416C255.162 126.416 255.495 125.333 255.634 124.218C255.55 122.899 255.386 121.586 255.142 120.287C255.142 120.287 256.617 117.339 255.898 116.598C255.18 115.857 254.386 117.089 254.386 117.089L254.5 114.904C254.5 114.904 250.455 118.563 250.455 120.038C250.455 121.512 252.179 129.382 252.179 129.382C252.179 129.382 245.541 150.55 244.309 154.7C243.618 156.949 243.125 159.253 242.835 161.587L260.064 170.16L258.34 160.083Z" fill="white" stroke="#263238" stroke-miterlimit="10"/>
<path d="M254.402 117.059C254.402 117.059 252.61 120.348 252.61 121.489V124.165" fill="white"/>
<path d="M254.402 117.059C254.402 117.059 252.61 120.348 252.61 121.489V124.165" stroke="#263238" stroke-miterlimit="10"/>
<path d="M252.436 156.144C252.436 156.144 249.306 153.876 247.461 155.713L252.436 156.144Z" fill="white"/>
<path d="M252.436 156.144C252.436 156.144 249.306 153.876 247.461 155.713" stroke="#263238" stroke-miterlimit="10"/>
<path d="M295.951 156.273L299.081 150.368C299.081 150.368 297.977 143.731 297.425 139.119C296.874 134.508 295.596 125.42 295.596 125.42C295.596 125.42 294.303 122.343 294.303 120.688C294.205 119.217 293.831 117.778 293.199 116.447C292.829 115.524 291.355 113.68 292.443 112.939L293.547 112.183L294.084 111.132L298.325 114.64L298.696 115.562C299.058 116.484 299.058 125.148 299.058 125.148C299.058 125.148 305.144 144.32 306.437 147.072C307.73 149.824 308.463 151.865 308.093 154.08C307.722 156.295 306.067 160.884 302.196 163.296C298.325 165.708 295.951 156.273 295.951 156.273Z" fill="white" stroke="#263238" stroke-miterlimit="10"/>
<path d="M299.822 150.187C299.822 150.187 301.334 147.601 305.167 149.431L299.822 150.187Z" fill="white"/>
<path d="M299.822 150.187C299.822 150.187 301.334 147.601 305.167 149.431" stroke="#263238" stroke-miterlimit="10"/>
<path d="M292.451 112.939C292.451 112.939 294.848 116.447 295.399 116.817C295.897 117.244 296.329 117.741 296.685 118.291" fill="white"/>
<path d="M292.451 112.939C292.451 112.939 294.848 116.447 295.399 116.817C295.897 117.244 296.329 117.741 296.685 118.291" stroke="#263238" stroke-miterlimit="10"/>
<path d="M271.858 139.429C271.858 139.429 268.418 138.204 268.909 142.377C269.401 146.551 273.09 146.316 273.09 146.316C273.09 146.316 274.315 151.722 275.297 152.213L276.28 152.704L275.297 158.601C273.768 159.103 272.211 159.515 270.633 159.834C269.877 159.834 264.237 159.592 263.254 159.592C262.271 159.592 257.108 158.836 257.108 158.836C256.048 160.518 255.614 162.52 255.883 164.49C256.375 167.688 257.108 169.404 257.599 170.145C257.934 170.677 258.189 171.256 258.355 171.861L262.287 173.373L266.709 202.389H295.966L299.406 168.218L304.32 164.279C304.131 161.771 303.636 159.295 302.846 156.908C301.621 153.468 296.458 154.201 296.458 154.201L294.492 155.925C294.492 155.925 290.561 156.908 289.82 157.15L286.872 158.133L286.38 151.744L278.019 138.227L271.858 139.429Z" fill="white" stroke="#263238" stroke-miterlimit="10"/>
<path d="M293.494 135.498C293.494 135.498 291.279 126.645 285.382 123.939C279.486 121.232 273.09 125.171 270.875 130.334C268.66 135.498 272.349 142.377 272.349 142.377C272.349 142.377 275.789 152.463 278.987 153.937C282.185 155.411 287.59 153.445 290.546 149.507C293.502 145.568 293.736 139.429 293.494 135.498Z" fill="#263238" stroke="#263238" stroke-miterlimit="10"/>
<path d="M295.581 141.644C300.399 141.644 304.305 138.012 304.305 133.532C304.305 129.052 300.399 125.42 295.581 125.42C290.763 125.42 286.857 129.052 286.857 133.532C286.857 138.012 290.763 141.644 295.581 141.644Z" fill="#263238" stroke="#263238" stroke-miterlimit="10"/>
<path d="M299.376 168.195L304.29 164.256C304.101 161.748 303.606 159.273 302.816 156.885C301.591 153.445 296.428 154.179 296.428 154.179L294.462 155.902C294.462 155.902 290.531 156.885 289.79 157.127L287.204 158.004C286.297 159.161 284.082 161.572 281.013 161.996C277.603 162.457 274.965 159.796 274.209 158.934C273.033 159.325 271.83 159.628 270.61 159.841C269.854 159.841 264.214 159.599 263.232 159.599C262.249 159.599 257.085 158.843 257.085 158.843C256.025 160.526 255.592 162.528 255.861 164.498C256.352 167.696 257.085 169.412 257.577 170.153C257.911 170.685 258.166 171.263 258.333 171.869L262.264 173.381L266.687 202.396H295.944L299.376 168.195Z" fill="#263238" stroke="#263238" stroke-miterlimit="10"/>
<path d="M260.064 243.432C260.064 243.432 263.02 272.16 263.02 280.31C263.02 288.459 263.776 301.939 264.245 308.335C264.713 314.73 266.452 324.324 266.452 324.324C266.452 324.324 265.22 323.833 264.729 326.048C264.237 328.263 263.973 328.747 261.78 329.487C259.588 330.228 257.849 331.703 258.832 332.927C259.815 334.152 265.22 334.651 269.151 335.634C273.082 336.617 273.581 335.384 273.581 332.685V324.785C273.581 324.785 276.28 282.993 276.28 281.519C276.28 280.045 277.271 244.891 277.271 244.891L260.064 243.432Z" fill="white" stroke="#263238" stroke-miterlimit="10"/>
<path d="M267.352 246.343L277.029 253.532C277.165 248.543 277.271 244.891 277.271 244.891L266.112 243.931L267.352 246.343Z" fill="#263238" stroke="#263238" stroke-miterlimit="10"/>
<path d="M269.136 335.604C273.075 336.586 273.566 335.354 273.566 332.655V324.785C270.368 323.069 268.894 328.225 267.911 327.734C266.928 327.242 266.437 324.294 266.437 324.294C266.437 324.294 265.205 323.802 264.713 326.017C264.222 328.232 263.957 328.716 261.765 329.457C259.573 330.198 257.834 331.672 258.817 332.897C259.799 334.122 265.22 334.621 269.136 335.604Z" fill="white" stroke="#263238" stroke-miterlimit="10"/>
<path d="M284.15 244.188C284.15 244.188 287.099 268.282 287.348 273.203C287.598 278.125 302.589 322.812 302.589 322.812C302.589 322.812 304.063 330.191 304.804 332.398C305.545 334.606 306.029 335.105 307.503 335.105C308.977 335.105 313.649 335.105 314.141 333.139C314.632 331.173 311.684 325.269 310.943 323.311C310.202 321.353 308.977 319.38 308.977 318.397C308.977 317.414 305.295 293.562 303.572 285.45C301.848 277.339 299.376 273.165 299.376 273.165L304.29 239.728L284.15 244.188Z" fill="white" stroke="#263238" stroke-miterlimit="10"/>
<path d="M303.655 244.188L294.908 241.799L284.15 244.188C284.15 244.188 284.642 248.195 285.239 253.26L303.496 245.284L303.655 244.188Z" fill="#263238" stroke="#263238" stroke-miterlimit="10"/>
<path d="M307.503 335.112C308.977 335.112 313.649 335.112 314.141 333.147C314.632 331.181 311.684 325.277 310.943 323.319C310.323 321.655 309.355 320.007 309.068 318.934C302.801 316.726 302.589 322.827 302.589 322.827C302.589 322.827 304.063 330.206 304.804 332.413C305.545 334.621 306.029 335.112 307.503 335.112Z" fill="white" stroke="#263238" stroke-miterlimit="10"/>
<path d="M309.204 329.208C306.059 329.465 305.038 331.007 304.789 332.443C305.545 334.621 306.014 335.112 307.48 335.112C308.947 335.112 313.627 335.112 314.118 333.147C314.211 332.205 314.081 331.255 313.74 330.372C312.439 329.404 310.81 328.986 309.204 329.208Z" fill="white" stroke="#263238" stroke-miterlimit="10"/>
<path d="M271.858 159.592C271.858 159.592 273.823 182.453 272.84 185.643C271.858 188.834 262.521 200.393 262.521 200.393L262.763 208.013C262.763 208.013 259.323 212.194 258.091 219.573C256.858 226.951 255.392 244.4 255.392 244.4C255.392 244.4 264.728 246.365 270.383 247.348C276.038 248.331 278.745 247.598 278.745 247.598L281.232 239.486L282.457 247.598C286.69 248.223 290.962 248.551 295.241 248.58C301.878 248.58 306.8 243.167 306.8 243.167C306.8 243.167 304.335 227.193 304.335 225.469C304.335 223.746 298.688 205.057 298.688 205.057L298.93 195.721C298.93 195.721 297.206 193.506 294.258 190.308C291.309 187.11 289.548 181.962 289.548 181.962L292.012 156.885L289.797 157.127L286.849 181.47L276.031 181.221L274.224 158.926L271.858 159.592Z" fill="#407BFF" stroke="#263238" stroke-miterlimit="10"/>
<path d="M272.742 210.531L294.999 206.925" stroke="#263238" stroke-miterlimit="10"/>
<path d="M270.935 207.522L277.754 206.32" stroke="#263238" stroke-miterlimit="10"/>
<path d="M281.202 239.486V234.073" stroke="#263238" stroke-miterlimit="10"/>
<path d="M276.53 233.581H285.624" stroke="#263238" stroke-miterlimit="10"/>
<path d="M82.0411 326.017C82.0411 326.017 74.912 336.216 74.912 337.69C74.9146 338.116 75.0373 338.533 75.2659 338.893C75.4946 339.252 75.82 339.54 76.2048 339.724H91.3248C92.1462 338.812 92.606 337.632 92.6175 336.405C92.6175 334.371 92.368 326.509 92.368 326.509L82.0411 326.017Z" fill="white" stroke="#263238" stroke-miterlimit="10"/>
<path d="M76.2048 339.724H91.3248C91.8467 339.142 92.2248 338.445 92.4285 337.69H74.912C74.9146 338.116 75.0373 338.533 75.2659 338.893C75.4946 339.252 75.82 339.54 76.2048 339.724Z" fill="white" stroke="#263238" stroke-miterlimit="10"/>
<path d="M82.041 217.849V326.017L92.368 326.509L103.428 242.676L105.401 328.86C105.401 328.86 108.1 326.403 111.049 325.912C113.166 325.594 115.303 325.427 117.445 325.413L117.686 320.99L117.195 315.827L122.608 221.062L82.041 217.849Z" fill="#263238" stroke="#263238" stroke-miterlimit="10"/>
<path d="M91.476 136.08L91.6045 150.338C91.6045 150.338 77.112 158.76 76.1745 160.469C75.2371 162.177 81.1868 219.512 81.1868 221.168C81.1868 222.823 83.916 223.02 86.94 223.564C89.964 224.109 104.638 225.228 109.983 225.039C115.328 224.85 121.232 223.564 122.336 222.831C123.44 222.098 124.551 166.411 123.629 163.107C122.706 159.803 104.638 151.487 104.638 151.487L105.008 146.331L91.476 136.08Z" fill="white" stroke="#263238" stroke-miterlimit="10"/>
<path d="M87.0836 176.738L91.8767 168.255" stroke="#263238" stroke-miterlimit="10"/>
<path d="M85.2389 179.497L92.9803 172.497" stroke="#263238" stroke-miterlimit="10"/>
<path d="M104.6 151.472L104.97 146.316L91.4759 136.08L91.6044 150.338C91.6044 150.338 90.4931 150.981 88.8752 151.941C91.1432 155.781 95.8304 162.291 101.077 161.24C105.046 160.484 108.115 157.074 110.096 154.141C107.012 152.583 104.6 151.472 104.6 151.472Z" fill="white" stroke="#263238" stroke-miterlimit="10"/>
<path d="M91.6045 147.753L104.971 146.316L91.4987 136.088L91.6045 147.753Z" fill="#263238" stroke="#263238" stroke-miterlimit="10"/>
<path d="M159.35 184.335H105.031V230.429H159.35V184.335Z" fill="#CFCFCF" stroke="#263238" stroke-miterlimit="10"/>
<path d="M159.342 184.335H131.438V230.429H159.342V184.335Z" fill="#CFCFCF" stroke="#263238" stroke-miterlimit="10"/>
<path d="M153.612 154.935H109.28V184.086H153.612V154.935Z" fill="#CFCFCF" stroke="#263238" stroke-miterlimit="10"/>
<path d="M153.612 154.935H130.833V184.086H153.612V154.935Z" fill="#CFCFCF" stroke="#263238" stroke-miterlimit="10"/>
<path d="M80.0755 158.11C78.7314 158.129 77.4186 158.518 76.281 159.234C75.1435 159.95 74.2251 160.966 73.6268 162.17C71.4117 166.411 71.9636 172.308 72.8708 175.445C73.778 178.582 80.2493 192.961 82.2754 196.462C84.3015 199.962 90.0169 206.789 90.0169 206.789C90.0169 206.789 106.241 228.546 106.981 229.65C107.722 230.754 109.008 231.676 109.93 231.676H111.956C112.161 232.082 112.479 232.421 112.872 232.65C113.265 232.879 113.716 232.99 114.171 232.969C115.683 232.788 116.938 231.124 116.938 231.124C116.938 231.124 115.093 229.28 114.912 227.987C114.884 227.817 114.891 227.644 114.932 227.477C114.973 227.31 115.047 227.153 115.15 227.015C115.253 226.877 115.383 226.762 115.532 226.676C115.68 226.589 115.845 226.534 116.016 226.513C116.862 226.727 117.748 226.727 118.594 226.513C119.886 226.15 121.55 225.039 119.705 224.487C118.632 224.156 117.506 224.03 116.386 224.116C116.386 224.116 114.171 222.642 112.326 222.642C110.875 222.548 109.445 222.237 108.085 221.72C108.085 221.72 98.4992 200.151 96.4731 197.565C95.1604 195.82 94.1039 193.895 93.3357 191.85L85.9647 165.118" fill="white"/>
<path d="M80.0755 158.11C78.7314 158.129 77.4186 158.518 76.281 159.234C75.1435 159.95 74.2251 160.966 73.6268 162.17C71.4117 166.411 71.9636 172.308 72.8708 175.445C73.778 178.582 80.2493 192.961 82.2754 196.462C84.3015 199.962 90.0169 206.789 90.0169 206.789C90.0169 206.789 106.241 228.546 106.981 229.65C107.722 230.754 109.008 231.676 109.93 231.676H111.956C112.161 232.082 112.479 232.421 112.872 232.65C113.265 232.879 113.716 232.99 114.171 232.969C115.683 232.788 116.938 231.124 116.938 231.124C116.938 231.124 115.093 229.28 114.912 227.987C114.884 227.817 114.891 227.644 114.932 227.477C114.973 227.31 115.047 227.153 115.15 227.015C115.253 226.877 115.383 226.762 115.532 226.676C115.68 226.589 115.845 226.534 116.016 226.513C116.862 226.727 117.748 226.727 118.594 226.513C119.886 226.15 121.55 225.039 119.705 224.487C118.632 224.156 117.506 224.03 116.386 224.116C116.386 224.116 114.171 222.642 112.326 222.642C110.875 222.548 109.445 222.237 108.085 221.72C108.085 221.72 98.4992 200.151 96.4731 197.565C95.1604 195.82 94.1039 193.895 93.3357 191.85L85.9647 165.118" stroke="#263238" stroke-miterlimit="10"/>
<path d="M78.7751 158.246C77.6731 158.46 76.6354 158.926 75.7425 159.606C74.8496 160.287 74.1256 161.164 73.6268 162.17C71.4117 166.411 71.9636 172.308 72.8708 175.445C73.0144 175.936 73.2941 176.7 73.6721 177.66C76.0989 175.604 80.8088 173.268 88.7921 175.339L86.2898 166.267" stroke="#263238" stroke-miterlimit="10"/>
<path d="M117.445 325.398C117.445 325.398 122.669 330.319 125.806 332.345C128.943 334.371 132.436 336.216 132.436 336.768V339.905H104.971L105.401 328.845C105.401 328.845 110.195 322.147 117.445 325.398Z" fill="white" stroke="#263238" stroke-miterlimit="10"/>
<path d="M132.436 337.69H105.084L105.001 339.905H132.466L132.436 337.69Z" fill="white" stroke="#263238" stroke-miterlimit="10"/>
<path d="M109.779 120.295C109.779 120.295 111.699 128.407 111.699 129.261C111.699 130.115 110.421 131.824 110.421 131.824C110.421 131.824 112.553 136.949 112.553 137.584C112.553 138.219 110.421 139.936 110.421 139.936C110.421 139.936 108.909 148.252 108.07 148.902C107.231 149.552 98.673 145.704 96.7301 144.85C94.7872 143.995 91.8161 138.227 91.8161 138.227C90.1875 137.276 88.8007 135.962 87.7639 134.387C85.8437 131.612 87.5522 129.261 89.4725 127.764C91.3927 126.267 93.5246 119.221 93.5246 119.221C93.5246 119.221 93.313 116.447 93.9556 116.235C94.5982 116.023 102.067 116.023 103.564 116.023C105.061 116.023 109.779 120.295 109.779 120.295Z" fill="white" stroke="#263238" stroke-miterlimit="10"/>
<path d="M104.464 129.48C104.464 129.48 105.885 128.233 108.773 128.724" stroke="#263238" stroke-miterlimit="10"/>
<path d="M107.48 132.088C107.48 132.844 107.276 133.426 107.019 133.426C106.762 133.426 106.551 132.829 106.551 132.088C106.551 131.347 106.762 130.758 107.019 130.758C107.276 130.758 107.48 131.355 107.48 132.088Z" fill="#263238"/>
<path d="M108.546 142.219C108.546 142.219 104.283 142.219 102.823 139.686" stroke="#263238" stroke-miterlimit="10"/>
<path d="M97.3954 122.427C97.3954 122.427 99.3156 123.493 98.2497 124.778C97.1837 126.063 94.4016 126.486 94.4016 127.341V132.035C94.4016 132.89 95.0442 133.956 93.7666 133.956C92.489 133.956 91.8388 131.824 91.8388 131.824C91.5128 131.386 91.096 131.025 90.6171 130.764C90.1382 130.503 89.6085 130.349 89.0643 130.312H87.3557C87.3557 130.312 85.2238 120.915 86.0781 118.352C86.9324 115.789 93.124 110.452 100.593 110.452C108.063 110.452 112.342 113.476 112.342 116.643C112.342 119.811 109.355 121.346 109.355 121.346H96.7679L97.3954 122.427Z" fill="#263238" stroke="#263238" stroke-miterlimit="10"/>
</svg>
