<svg width="36" height="36" viewBox="0 0 36 36" fill="none" xmlns="http://www.w3.org/2000/svg">
<rect width="36" height="36" rx="6" fill="#C4DBFF"/>
<path d="M13 26.9999H10C9.45 26.9999 9 26.5499 9 25.9999V14.6899C9 14.2699 9.25 13.8999 9.64 13.7499L20.64 9.51994C20.7921 9.46126 20.9561 9.44064 21.118 9.45986C21.2798 9.47909 21.4345 9.53758 21.5686 9.63025C21.7027 9.72292 21.8121 9.84696 21.8873 9.99156C21.9624 10.1362 22.0012 10.297 22 10.4599V15.9999H14C13.45 15.9999 13 16.4499 13 16.9999V26.9999ZM23 17.9999H16C15.45 17.9999 15 18.4499 15 18.9999V25.9999C15 26.5499 15.45 26.9999 16 26.9999H20V22.9999C20 22.4499 20.45 21.9999 21 21.9999C21.55 21.9999 22 22.4499 22 22.9999V26.9999H26C26.55 26.9999 27 26.5499 27 25.9999V17.9999C27 16.8999 26.1 15.9999 25 15.9999C23.9 15.9999 23 16.8999 23 17.9999Z" fill="#14274E"/>
</svg>
